<svg width="26" height="26" viewBox="0 0 26 26" fill="none" xmlns="http://www.w3.org/2000/svg">
<path d="M26 13.0781C26.0006 10.6735 25.2885 8.31915 23.9481 6.29412C22.6076 4.26909 20.695 2.65827 18.437 1.65261C16.179 0.64694 13.6702 0.288593 11.2081 0.620043C8.74592 0.951492 6.43363 1.95884 4.5453 3.52268C2.65697 5.08652 1.27176 7.14128 0.553879 9.4434C-0.164005 11.7455 -0.184466 14.1985 0.494921 16.5115C1.17431 18.8245 2.52506 20.9006 4.38706 22.4937C6.24906 24.0869 8.54423 25.1302 11.0005 25.5V16.7136H7.70243V13.0781H11.0005V10.3132C11.0005 7.1562 12.9107 5.42151 15.879 5.42151C16.855 5.43475 17.8287 5.51694 18.7923 5.66743V8.75796H17.1845C16.9023 8.72105 16.6153 8.74673 16.3449 8.83306C16.0746 8.9194 15.8281 9.06411 15.6242 9.25625C15.4203 9.44839 15.2642 9.6829 15.1679 9.94203C15.0716 10.2012 15.0375 10.4781 15.0682 10.7518V13.1046H18.6686L18.0983 16.7402H15.0338V25.5C18.0914 25.0315 20.8757 23.523 22.886 21.2459C24.8963 18.9688 26.0005 16.0725 26 13.0781Z" fill="#1977F3"/>
</svg>
