<svg width="711" height="292" viewBox="0 0 711 292" fill="none" xmlns="http://www.w3.org/2000/svg">
<g filter="url(#filter0_d_1506_149)">
<path d="M200 149.618C215.483 145.496 251.72 138.488 272.804 143.434C299.158 149.618 307.394 173.4 328.147 166.265C348.901 159.131 394.033 108.713 425.329 129.165C456.624 149.618 466.837 203.365 505.709 166.265C544.582 129.165 541.287 109.664 573.571 113.469C605.855 117.274 658.893 130.116 678 113.469" stroke="#4318FF" stroke-width="4" stroke-linecap="round"/>
</g>
<path d="M200 205.476C215.483 201.316 235.908 179.847 256.991 184.838C283.345 191.077 294.546 232.359 315.3 225.16C336.054 217.961 391.481 176.29 425.329 184.838C467.166 195.404 461.236 242.912 500.109 205.476C538.981 168.04 562.7 190.604 594.984 194.444C627.268 198.283 658.893 185.798 678 169" stroke="#6AD2FF" stroke-width="4" stroke-linecap="round"/>
<ellipse cx="410.517" cy="124.346" rx="6.57918" ry="7.71744" fill="#4318FF"/>
<ellipse cx="410.518" cy="124.343" rx="4.11198" ry="4.8234" fill="white"/>
<path d="M383.492 85.0039C383.492 81.6902 386.178 79.0039 389.492 79.0039H432.99C436.304 79.0039 438.99 81.6902 438.99 85.0039V100.813C438.99 104.022 436.388 106.624 433.179 106.624H420.492C417.227 106.624 414.143 108.121 412.122 110.685V110.685C411.673 111.255 410.809 111.255 410.36 110.685V110.685C408.34 108.121 405.255 106.624 401.991 106.624H389.304C386.094 106.624 383.492 104.022 383.492 100.813V85.0039Z" fill="#4318FF"/>
<path d="M396.312 95V87.3H399.139C399.755 87.3 400.261 87.4063 400.657 87.619C401.06 87.8243 401.361 88.1067 401.559 88.466C401.757 88.818 401.856 89.2103 401.856 89.643C401.856 90.1123 401.731 90.5413 401.482 90.93C401.24 91.3187 400.858 91.601 400.338 91.777L401.933 95H400.316L398.886 91.964H397.72V95H396.312ZM397.72 90.93H399.051C399.52 90.93 399.865 90.8163 400.085 90.589C400.305 90.3617 400.415 90.061 400.415 89.687C400.415 89.3203 400.305 89.027 400.085 88.807C399.872 88.587 399.524 88.477 399.04 88.477H397.72V90.93ZM405.101 95.957V95.11C404.39 95.0293 403.811 94.78 403.363 94.362C402.916 93.944 402.685 93.383 402.67 92.679H404.155C404.17 92.9723 404.258 93.229 404.419 93.449C404.588 93.669 404.815 93.8193 405.101 93.9V91.579C405.035 91.557 404.966 91.535 404.892 91.513C404.826 91.491 404.757 91.469 404.683 91.447C404.089 91.2417 403.635 90.9777 403.319 90.655C403.011 90.3323 402.857 89.9033 402.857 89.368C402.85 88.7373 403.055 88.2313 403.473 87.85C403.891 87.4613 404.434 87.2377 405.101 87.179V86.288H405.838V87.19C406.498 87.256 407.03 87.487 407.433 87.883C407.844 88.2717 408.06 88.774 408.082 89.39H406.575C406.568 89.1773 406.498 88.983 406.366 88.807C406.242 88.6237 406.066 88.4953 405.838 88.422V90.468C405.897 90.49 405.956 90.512 406.014 90.534C406.073 90.5487 406.132 90.567 406.19 90.589C406.572 90.721 406.92 90.875 407.235 91.051C407.551 91.227 407.804 91.4617 407.994 91.755C408.185 92.041 408.28 92.4113 408.28 92.866C408.28 93.2473 408.185 93.603 407.994 93.933C407.811 94.263 407.536 94.538 407.169 94.758C406.81 94.9707 406.366 95.0917 405.838 95.121V95.957H405.101ZM404.331 89.269C404.331 89.5037 404.401 89.6943 404.54 89.841C404.68 89.9803 404.867 90.1013 405.101 90.204V88.378C404.874 88.422 404.687 88.521 404.54 88.675C404.401 88.829 404.331 89.027 404.331 89.269ZM406.784 92.965C406.784 92.6717 406.696 92.4407 406.52 92.272C406.344 92.1033 406.117 91.9603 405.838 91.843V93.933C406.132 93.889 406.363 93.7827 406.531 93.614C406.7 93.4453 406.784 93.229 406.784 92.965ZM410.125 95V88.906L408.86 89.203V88.125L410.719 87.3H411.588V95H410.125ZM416.018 95.132C415.306 95.132 414.698 94.967 414.192 94.637C413.686 94.2997 413.293 93.834 413.015 93.24C412.743 92.6387 412.608 91.942 412.608 91.15C412.608 90.3653 412.743 89.6723 413.015 89.071C413.293 88.4697 413.686 88.004 414.192 87.674C414.698 87.3367 415.306 87.168 416.018 87.168C416.729 87.168 417.338 87.3367 417.844 87.674C418.35 88.004 418.738 88.4697 419.01 89.071C419.288 89.6723 419.428 90.3653 419.428 91.15C419.428 91.942 419.288 92.6387 419.01 93.24C418.738 93.834 418.35 94.2997 417.844 94.637C417.338 94.967 416.729 95.132 416.018 95.132ZM416.018 93.867C416.597 93.867 417.07 93.625 417.437 93.141C417.803 92.657 417.987 91.9933 417.987 91.15C417.987 90.3067 417.803 89.643 417.437 89.159C417.07 88.675 416.597 88.433 416.018 88.433C415.431 88.433 414.954 88.675 414.588 89.159C414.228 89.643 414.049 90.3067 414.049 91.15C414.049 91.9933 414.228 92.657 414.588 93.141C414.954 93.625 415.431 93.867 416.018 93.867ZM423.167 95.132C422.639 95.132 422.163 95.0403 421.737 94.857C421.312 94.6663 420.971 94.3987 420.714 94.054C420.465 93.7093 420.34 93.3097 420.34 92.855C420.34 92.3857 420.461 91.975 420.703 91.623C420.953 91.271 421.279 91.018 421.682 90.864C421.33 90.71 421.052 90.49 420.846 90.204C420.641 89.9107 420.538 89.5843 420.538 89.225C420.538 88.8583 420.637 88.521 420.835 88.213C421.033 87.8977 421.327 87.6447 421.715 87.454C422.111 87.2633 422.595 87.168 423.167 87.168C423.739 87.168 424.22 87.2633 424.608 87.454C424.997 87.6447 425.29 87.8977 425.488 88.213C425.686 88.521 425.785 88.8583 425.785 89.225C425.785 89.577 425.679 89.9033 425.466 90.204C425.261 90.4973 424.986 90.7173 424.641 90.864C425.052 91.018 425.378 91.271 425.62 91.623C425.862 91.975 425.983 92.3857 425.983 92.855C425.983 93.3097 425.859 93.7093 425.609 94.054C425.36 94.3987 425.019 94.6663 424.586 94.857C424.161 95.0403 423.688 95.132 423.167 95.132ZM423.167 90.446C423.549 90.446 423.849 90.347 424.069 90.149C424.289 89.951 424.399 89.698 424.399 89.39C424.399 89.0527 424.289 88.7887 424.069 88.598C423.857 88.4073 423.556 88.312 423.167 88.312C422.771 88.312 422.467 88.4073 422.254 88.598C422.042 88.7887 421.935 89.0527 421.935 89.39C421.935 89.7053 422.042 89.962 422.254 90.16C422.474 90.3507 422.779 90.446 423.167 90.446ZM423.167 93.955C423.637 93.955 423.992 93.8413 424.234 93.614C424.476 93.3793 424.597 93.086 424.597 92.734C424.597 92.3453 424.469 92.041 424.212 91.821C423.963 91.601 423.615 91.491 423.167 91.491C422.72 91.491 422.364 91.601 422.1 91.821C421.844 92.041 421.715 92.3453 421.715 92.734C421.715 93.086 421.836 93.3793 422.078 93.614C422.328 93.8413 422.691 93.955 423.167 93.955ZM427.148 95V87.3H428.556V90.413L431.405 87.3H433.143L430.305 90.358L433.22 95H431.493L429.293 91.436L428.556 92.239V95H427.148Z" fill="white"/>
<path d="M194.985 277.144C194.369 277.144 193.829 277.036 193.365 276.82C192.901 276.604 192.537 276.296 192.273 275.896C192.017 275.496 191.885 275.02 191.877 274.468H193.221C193.229 274.916 193.385 275.296 193.689 275.608C193.993 275.92 194.421 276.076 194.973 276.076C195.461 276.076 195.841 275.96 196.113 275.728C196.393 275.488 196.533 275.184 196.533 274.816C196.533 274.52 196.465 274.28 196.329 274.096C196.201 273.912 196.021 273.76 195.789 273.64C195.565 273.52 195.305 273.412 195.009 273.316C194.713 273.22 194.401 273.116 194.073 273.004C193.425 272.788 192.937 272.508 192.609 272.164C192.289 271.82 192.129 271.368 192.129 270.808C192.121 270.336 192.229 269.924 192.453 269.572C192.685 269.22 193.005 268.948 193.413 268.756C193.829 268.556 194.313 268.456 194.865 268.456C195.409 268.456 195.885 268.556 196.293 268.756C196.709 268.956 197.033 269.236 197.265 269.596C197.497 269.948 197.617 270.36 197.625 270.832H196.281C196.281 270.616 196.225 270.412 196.113 270.22C196.001 270.02 195.837 269.856 195.621 269.728C195.405 269.6 195.141 269.536 194.829 269.536C194.429 269.528 194.097 269.628 193.833 269.836C193.577 270.044 193.449 270.332 193.449 270.7C193.449 271.028 193.545 271.28 193.737 271.456C193.929 271.632 194.193 271.78 194.529 271.9C194.865 272.012 195.249 272.144 195.681 272.296C196.097 272.432 196.469 272.596 196.797 272.788C197.125 272.98 197.385 273.232 197.577 273.544C197.777 273.856 197.877 274.252 197.877 274.732C197.877 275.156 197.769 275.552 197.553 275.92C197.337 276.28 197.013 276.576 196.581 276.808C196.149 277.032 195.617 277.144 194.985 277.144ZM199.028 277V268.6H204.368V269.632H200.3V272.248H204.008V273.256H200.3V275.968H204.368V277H199.028ZM207.611 277V269.632H205.127V268.6H211.355V269.632H208.883V277H207.611Z" fill="#A3AED0"/>
<path d="M265.39 277.144C264.558 277.144 263.83 276.96 263.206 276.592C262.582 276.224 262.094 275.716 261.742 275.068C261.39 274.412 261.214 273.656 261.214 272.8C261.214 271.944 261.39 271.192 261.742 270.544C262.094 269.888 262.582 269.376 263.206 269.008C263.83 268.64 264.558 268.456 265.39 268.456C266.222 268.456 266.95 268.64 267.574 269.008C268.198 269.376 268.682 269.888 269.026 270.544C269.378 271.192 269.554 271.944 269.554 272.8C269.554 273.656 269.378 274.412 269.026 275.068C268.682 275.716 268.198 276.224 267.574 276.592C266.95 276.96 266.222 277.144 265.39 277.144ZM265.39 276.004C265.966 276.004 266.466 275.876 266.89 275.62C267.322 275.364 267.658 274.996 267.898 274.516C268.138 274.036 268.258 273.464 268.258 272.8C268.258 272.136 268.138 271.564 267.898 271.084C267.658 270.604 267.322 270.236 266.89 269.98C266.466 269.724 265.966 269.596 265.39 269.596C264.814 269.596 264.31 269.724 263.878 269.98C263.446 270.236 263.11 270.604 262.87 271.084C262.638 271.564 262.522 272.136 262.522 272.8C262.522 273.464 262.638 274.036 262.87 274.516C263.11 274.996 263.446 275.364 263.878 275.62C264.31 275.876 264.814 276.004 265.39 276.004ZM273.875 277.144C273.275 277.144 272.731 277.028 272.243 276.796C271.763 276.556 271.379 276.192 271.091 275.704C270.811 275.216 270.671 274.596 270.671 273.844V268.6H271.943V273.856C271.943 274.592 272.119 275.132 272.471 275.476C272.823 275.82 273.299 275.992 273.899 275.992C274.491 275.992 274.963 275.82 275.315 275.476C275.667 275.132 275.843 274.592 275.843 273.856V268.6H277.115V273.844C277.115 274.596 276.967 275.216 276.671 275.704C276.383 276.192 275.991 276.556 275.495 276.796C275.007 277.028 274.467 277.144 273.875 277.144ZM280.475 277V269.632H277.991V268.6H284.219V269.632H281.747V277H280.475Z" fill="#A3AED0"/>
<path d="M331.872 277V268.6H333.144L337.356 274.924V268.6H338.628V277H337.356L333.144 270.676V277H331.872ZM343.968 277.144C343.136 277.144 342.408 276.96 341.784 276.592C341.16 276.224 340.672 275.716 340.32 275.068C339.968 274.412 339.792 273.656 339.792 272.8C339.792 271.944 339.968 271.192 340.32 270.544C340.672 269.888 341.16 269.376 341.784 269.008C342.408 268.64 343.136 268.456 343.968 268.456C344.8 268.456 345.528 268.64 346.152 269.008C346.776 269.376 347.26 269.888 347.604 270.544C347.956 271.192 348.132 271.944 348.132 272.8C348.132 273.656 347.956 274.412 347.604 275.068C347.26 275.716 346.776 276.224 346.152 276.592C345.528 276.96 344.8 277.144 343.968 277.144ZM343.968 276.004C344.544 276.004 345.044 275.876 345.468 275.62C345.9 275.364 346.236 274.996 346.476 274.516C346.716 274.036 346.836 273.464 346.836 272.8C346.836 272.136 346.716 271.564 346.476 271.084C346.236 270.604 345.9 270.236 345.468 269.98C345.044 269.724 344.544 269.596 343.968 269.596C343.392 269.596 342.888 269.724 342.456 269.98C342.024 270.236 341.688 270.604 341.448 271.084C341.216 271.564 341.1 272.136 341.1 272.8C341.1 273.464 341.216 274.036 341.448 274.516C341.688 274.996 342.024 275.364 342.456 275.62C342.888 275.876 343.392 276.004 343.968 276.004ZM351.489 277L348.381 268.6H349.737L352.257 275.68L354.789 268.6H356.133L353.025 277H351.489Z" fill="#A3AED0"/>
<path d="M404.916 277V268.6H407.64C408.624 268.6 409.432 268.772 410.064 269.116C410.704 269.46 411.176 269.948 411.48 270.58C411.792 271.204 411.948 271.948 411.948 272.812C411.948 273.668 411.792 274.412 411.48 275.044C411.176 275.668 410.704 276.152 410.064 276.496C409.432 276.832 408.624 277 407.64 277H404.916ZM406.188 275.92H407.592C408.352 275.92 408.952 275.796 409.392 275.548C409.84 275.3 410.16 274.944 410.352 274.48C410.552 274.016 410.652 273.46 410.652 272.812C410.652 272.164 410.552 271.604 410.352 271.132C410.16 270.66 409.84 270.3 409.392 270.052C408.952 269.796 408.352 269.668 407.592 269.668H406.188V275.92ZM413.114 277V268.6H418.454V269.632H414.386V272.248H418.094V273.256H414.386V275.968H418.454V277H413.114ZM419.417 277V276.016L423.425 269.68H419.465V268.6H424.901V269.584L420.881 275.92H424.937V277H419.417Z" fill="#A3AED0"/>
<path d="M477.73 277.144C476.946 277.144 476.322 276.924 475.858 276.484C475.402 276.044 475.174 275.424 475.174 274.624H476.446C476.446 275.024 476.542 275.356 476.734 275.62C476.934 275.884 477.258 276.016 477.706 276.016C478.146 276.016 478.458 275.892 478.642 275.644C478.826 275.388 478.918 275.064 478.918 274.672V268.6H480.19V274.672C480.19 275.464 479.97 276.076 479.53 276.508C479.09 276.932 478.49 277.144 477.73 277.144ZM480.746 277L483.842 268.6H485.234L488.306 277H486.962L486.242 274.948H482.81L482.09 277H480.746ZM483.17 273.94H485.882L484.526 270.112L483.17 273.94ZM489.237 277V268.6H490.509L494.721 274.924V268.6H495.993V277H494.721L490.509 270.676V277H489.237Z" fill="#A3AED0"/>
<path d="M547.235 277V268.6H552.503V269.632H548.507V272.284H551.819V273.304H548.507V277H547.235ZM553.51 277V268.6H558.85V269.632H554.782V272.248H558.49V273.256H554.782V275.968H558.85V277H553.51ZM562.61 277L559.502 268.6H560.858L563.378 275.68L565.91 268.6H567.254L564.146 277H562.61Z" fill="#A3AED0"/>
<path d="M31.29 118V109.404H28.392V108.2H35.658V109.404H32.774V118H31.29ZM38.7009 118.168C38.0383 118.168 37.4409 118.019 36.9089 117.72C36.3863 117.412 35.9709 116.987 35.6629 116.446C35.3549 115.895 35.2009 115.256 35.2009 114.528C35.2009 113.8 35.3549 113.165 35.6629 112.624C35.9803 112.073 36.4049 111.649 36.9369 111.35C37.4689 111.042 38.0616 110.888 38.7149 110.888C39.3776 110.888 39.9703 111.042 40.4929 111.35C41.0249 111.649 41.4449 112.073 41.7529 112.624C42.0703 113.165 42.2289 113.8 42.2289 114.528C42.2289 115.256 42.0703 115.895 41.7529 116.446C41.4449 116.987 41.0249 117.412 40.4929 117.72C39.9609 118.019 39.3636 118.168 38.7009 118.168ZM38.7009 116.894C39.0556 116.894 39.3823 116.805 39.6809 116.628C39.9889 116.451 40.2363 116.189 40.4229 115.844C40.6096 115.489 40.7029 115.051 40.7029 114.528C40.7029 114.005 40.6096 113.571 40.4229 113.226C40.2456 112.871 40.0029 112.605 39.6949 112.428C39.3963 112.251 39.0696 112.162 38.7149 112.162C38.3603 112.162 38.0289 112.251 37.7209 112.428C37.4223 112.605 37.1796 112.871 36.9929 113.226C36.8063 113.571 36.7129 114.005 36.7129 114.528C36.7129 115.051 36.8063 115.489 36.9929 115.844C37.1796 116.189 37.4223 116.451 37.7209 116.628C38.0196 116.805 38.3463 116.894 38.7009 116.894ZM46.1923 118C45.511 118 44.9697 117.837 44.5683 117.51C44.167 117.174 43.9663 116.581 43.9663 115.732V112.302H42.7763V111.056H43.9663L44.1483 109.292H45.4503V111.056H47.4103V112.302H45.4503V115.732C45.4503 116.115 45.5297 116.381 45.6883 116.53C45.8563 116.67 46.141 116.74 46.5423 116.74H47.3403V118H46.1923ZM51.0125 118.168C50.4245 118.168 49.9392 118.07 49.5565 117.874C49.1738 117.678 48.8892 117.421 48.7025 117.104C48.5158 116.777 48.4225 116.423 48.4225 116.04C48.4225 115.368 48.6838 114.836 49.2065 114.444C49.7292 114.052 50.4758 113.856 51.4465 113.856H53.2665V113.73C53.2665 113.189 53.1172 112.783 52.8185 112.512C52.5292 112.241 52.1512 112.106 51.6845 112.106C51.2738 112.106 50.9145 112.209 50.6065 112.414C50.3078 112.61 50.1258 112.904 50.0605 113.296H48.5765C48.6232 112.792 48.7912 112.363 49.0805 112.008C49.3792 111.644 49.7525 111.369 50.2005 111.182C50.6578 110.986 51.1572 110.888 51.6985 110.888C52.6692 110.888 53.4205 111.145 53.9525 111.658C54.4845 112.162 54.7505 112.853 54.7505 113.73V118H53.4625L53.3365 116.81C53.1405 117.193 52.8558 117.515 52.4825 117.776C52.1092 118.037 51.6192 118.168 51.0125 118.168ZM51.3065 116.964C51.7078 116.964 52.0438 116.871 52.3145 116.684C52.5945 116.488 52.8092 116.231 52.9585 115.914C53.1172 115.597 53.2152 115.247 53.2525 114.864H51.6005C51.0125 114.864 50.5925 114.967 50.3405 115.172C50.0978 115.377 49.9765 115.634 49.9765 115.942C49.9765 116.259 50.0932 116.511 50.3265 116.698C50.5692 116.875 50.8958 116.964 51.3065 116.964ZM56.2008 118V107.92H57.6848V118H56.2008Z" fill="#A3AED0"/>
<path d="M30.04 95V74H37.75C39.43 74 40.81 74.29 41.89 74.87C42.99 75.43 43.81 76.2 44.35 77.18C44.89 78.14 45.16 79.21 45.16 80.39C45.16 81.67 44.82 82.84 44.14 83.9C43.48 84.96 42.44 85.73 41.02 86.21L45.37 95H40.96L37.06 86.72H33.88V95H30.04ZM33.88 83.9H37.51C38.79 83.9 39.73 83.59 40.33 82.97C40.93 82.35 41.23 81.53 41.23 80.51C41.23 79.51 40.93 78.71 40.33 78.11C39.75 77.51 38.8 77.21 37.48 77.21H33.88V83.9ZM54.0114 97.61V95.3C52.0714 95.08 50.4914 94.4 49.2714 93.26C48.0514 92.12 47.4214 90.59 47.3814 88.67H51.4314C51.4714 89.47 51.7114 90.17 52.1514 90.77C52.6114 91.37 53.2314 91.78 54.0114 92V85.67C53.8314 85.61 53.6414 85.55 53.4414 85.49C53.2614 85.43 53.0714 85.37 52.8714 85.31C51.2514 84.75 50.0114 84.03 49.1514 83.15C48.3114 82.27 47.8914 81.1 47.8914 79.64C47.8714 77.92 48.4314 76.54 49.5714 75.5C50.7114 74.44 52.1914 73.83 54.0114 73.67V71.24H56.0214V73.7C57.8214 73.88 59.2714 74.51 60.3714 75.59C61.4914 76.65 62.0814 78.02 62.1414 79.7H58.0314C58.0114 79.12 57.8214 78.59 57.4614 78.11C57.1214 77.61 56.6414 77.26 56.0214 77.06V82.64C56.1814 82.7 56.3414 82.76 56.5014 82.82C56.6614 82.86 56.8214 82.91 56.9814 82.97C58.0214 83.33 58.9714 83.75 59.8314 84.23C60.6914 84.71 61.3814 85.35 61.9014 86.15C62.4214 86.93 62.6814 87.94 62.6814 89.18C62.6814 90.22 62.4214 91.19 61.9014 92.09C61.4014 92.99 60.6514 93.74 59.6514 94.34C58.6714 94.92 57.4614 95.25 56.0214 95.33V97.61H54.0114ZM51.9114 79.37C51.9114 80.01 52.1014 80.53 52.4814 80.93C52.8614 81.31 53.3714 81.64 54.0114 81.92V76.94C53.3914 77.06 52.8814 77.33 52.4814 77.75C52.1014 78.17 51.9114 78.71 51.9114 79.37ZM58.6014 89.45C58.6014 88.65 58.3614 88.02 57.8814 87.56C57.4014 87.1 56.7814 86.71 56.0214 86.39V92.09C56.8214 91.97 57.4514 91.68 57.9114 91.22C58.3714 90.76 58.6014 90.17 58.6014 89.45ZM71.4702 95V92.21C72.7502 91.15 73.9902 90.1 75.1902 89.06C76.4102 88.02 77.4902 86.99 78.4302 85.97C79.3902 84.95 80.1502 83.96 80.7102 83C81.2902 82.02 81.5802 81.07 81.5802 80.15C81.5802 79.29 81.3402 78.53 80.8602 77.87C80.4002 77.21 79.6302 76.88 78.5502 76.88C77.4502 76.88 76.6202 77.24 76.0602 77.96C75.5002 78.68 75.2202 79.55 75.2202 80.57H71.5002C71.5402 79.03 71.8802 77.75 72.5202 76.73C73.1602 75.69 74.0102 74.92 75.0702 74.42C76.1302 73.9 77.3202 73.64 78.6402 73.64C80.7802 73.64 82.4402 74.23 83.6202 75.41C84.8202 76.57 85.4202 78.08 85.4202 79.94C85.4202 81.1 85.1502 82.23 84.6102 83.33C84.0902 84.43 83.4002 85.49 82.5402 86.51C81.6802 87.53 80.7502 88.49 79.7502 89.39C78.7502 90.27 77.7802 91.09 76.8402 91.85H85.9302V95H71.4702ZM88.0089 95V92.21C89.2889 91.15 90.5289 90.1 91.7289 89.06C92.9489 88.02 94.0289 86.99 94.9689 85.97C95.9289 84.95 96.6889 83.96 97.2489 83C97.8289 82.02 98.1189 81.07 98.1189 80.15C98.1189 79.29 97.8789 78.53 97.3989 77.87C96.9389 77.21 96.1689 76.88 95.0889 76.88C93.9889 76.88 93.1589 77.24 92.5989 77.96C92.0389 78.68 91.7589 79.55 91.7589 80.57H88.0389C88.0789 79.03 88.4189 77.75 89.0589 76.73C89.6989 75.69 90.5489 74.92 91.6089 74.42C92.6689 73.9 93.8589 73.64 95.1789 73.64C97.3189 73.64 98.9789 74.23 100.159 75.41C101.359 76.57 101.959 78.08 101.959 79.94C101.959 81.1 101.689 82.23 101.149 83.33C100.629 84.43 99.9389 85.49 99.0789 86.51C98.2189 87.53 97.2889 88.49 96.2889 89.39C95.2889 90.27 94.3189 91.09 93.3789 91.85H102.469V95H88.0089ZM112.204 95.36C110.764 95.36 109.464 95.11 108.304 94.61C107.144 94.09 106.214 93.36 105.514 92.42C104.834 91.48 104.494 90.39 104.494 89.15C104.494 87.87 104.824 86.75 105.484 85.79C106.164 84.83 107.054 84.14 108.154 83.72C107.194 83.3 106.434 82.7 105.874 81.92C105.314 81.12 105.034 80.23 105.034 79.25C105.034 78.25 105.304 77.33 105.844 76.49C106.384 75.63 107.184 74.94 108.244 74.42C109.324 73.9 110.644 73.64 112.204 73.64C113.764 73.64 115.074 73.9 116.134 74.42C117.194 74.94 117.994 75.63 118.534 76.49C119.074 77.33 119.344 78.25 119.344 79.25C119.344 80.21 119.054 81.1 118.474 81.92C117.914 82.72 117.164 83.32 116.224 83.72C117.344 84.14 118.234 84.83 118.894 85.79C119.554 86.75 119.884 87.87 119.884 89.15C119.884 90.39 119.544 91.48 118.864 92.42C118.184 93.36 117.254 94.09 116.074 94.61C114.914 95.11 113.624 95.36 112.204 95.36ZM112.204 82.58C113.244 82.58 114.064 82.31 114.664 81.77C115.264 81.23 115.564 80.54 115.564 79.7C115.564 78.78 115.264 78.06 114.664 77.54C114.084 77.02 113.264 76.76 112.204 76.76C111.124 76.76 110.294 77.02 109.714 77.54C109.134 78.06 108.844 78.78 108.844 79.7C108.844 80.56 109.134 81.26 109.714 81.8C110.314 82.32 111.144 82.58 112.204 82.58ZM112.204 92.15C113.484 92.15 114.454 91.84 115.114 91.22C115.774 90.58 116.104 89.78 116.104 88.82C116.104 87.76 115.754 86.93 115.054 86.33C114.374 85.73 113.424 85.43 112.204 85.43C110.984 85.43 110.014 85.73 109.294 86.33C108.594 86.93 108.244 87.76 108.244 88.82C108.244 89.78 108.574 90.58 109.234 91.22C109.914 91.84 110.904 92.15 112.204 92.15ZM124.621 95.21C123.921 95.21 123.341 94.99 122.881 94.55C122.441 94.11 122.221 93.58 122.221 92.96C122.221 92.32 122.441 91.78 122.881 91.34C123.341 90.9 123.921 90.68 124.621 90.68C125.321 90.68 125.891 90.9 126.331 91.34C126.791 91.78 127.021 92.32 127.021 92.96C127.021 93.58 126.791 94.11 126.331 94.55C125.891 94.99 125.321 95.21 124.621 95.21ZM137.198 95.36C135.658 95.36 134.328 95.09 133.208 94.55C132.108 94.01 131.238 93.27 130.598 92.33C129.978 91.37 129.618 90.29 129.518 89.09H133.268C133.448 89.95 133.888 90.67 134.588 91.25C135.288 91.81 136.158 92.09 137.198 92.09C138.318 92.09 139.228 91.68 139.928 90.86C140.648 90.04 141.008 89.02 141.008 87.8C141.008 86.54 140.648 85.54 139.928 84.8C139.228 84.06 138.338 83.69 137.258 83.69C136.358 83.69 135.578 83.91 134.918 84.35C134.258 84.79 133.788 85.34 133.508 86H129.818L131.618 74H143.258V77.36H134.498L133.538 82.22C133.978 81.74 134.578 81.35 135.338 81.05C136.098 80.73 136.948 80.57 137.888 80.57C139.388 80.57 140.638 80.91 141.638 81.59C142.638 82.25 143.398 83.13 143.918 84.23C144.438 85.31 144.698 86.49 144.698 87.77C144.698 89.23 144.378 90.53 143.738 91.67C143.118 92.81 142.238 93.71 141.098 94.37C139.978 95.03 138.678 95.36 137.198 95.36ZM147.672 95V74H151.512V82.49L159.282 74H164.022L156.282 82.34L164.232 95H159.522L153.522 85.28L151.512 87.47V95H147.672Z" fill="#2B3674"/>
<path d="M127.056 115.141V113.857H129.312V111.781H130.62V113.857H132.864V115.141H130.62V117.217H129.312V115.141H127.056ZM133.916 117.973V116.857C134.428 116.433 134.924 116.013 135.404 115.597C135.892 115.181 136.324 114.769 136.7 114.361C137.084 113.953 137.388 113.557 137.612 113.173C137.844 112.781 137.96 112.401 137.96 112.033C137.96 111.689 137.864 111.385 137.672 111.121C137.488 110.857 137.18 110.725 136.748 110.725C136.308 110.725 135.976 110.869 135.752 111.157C135.528 111.445 135.416 111.793 135.416 112.201H133.928C133.944 111.585 134.08 111.073 134.336 110.665C134.592 110.249 134.932 109.941 135.356 109.741C135.78 109.533 136.256 109.429 136.784 109.429C137.64 109.429 138.304 109.665 138.776 110.137C139.256 110.601 139.496 111.205 139.496 111.949C139.496 112.413 139.388 112.865 139.172 113.305C138.964 113.745 138.688 114.169 138.344 114.577C138 114.985 137.628 115.369 137.228 115.729C136.828 116.081 136.44 116.409 136.064 116.713H139.7V117.973H133.916ZM141.359 118.057C141.079 118.057 140.847 117.969 140.663 117.793C140.487 117.617 140.399 117.405 140.399 117.157C140.399 116.901 140.487 116.685 140.663 116.509C140.847 116.333 141.079 116.245 141.359 116.245C141.639 116.245 141.867 116.333 142.043 116.509C142.227 116.685 142.319 116.901 142.319 117.157C142.319 117.405 142.227 117.617 142.043 117.793C141.867 117.969 141.639 118.057 141.359 118.057ZM147.218 117.973V116.413H143.078V115.189L147.014 109.573H148.754V115.081H149.858V116.413H148.754V117.973H147.218ZM144.722 115.081H147.314V111.265L144.722 115.081ZM153.838 118.117C153.222 118.117 152.69 118.009 152.242 117.793C151.802 117.577 151.454 117.281 151.198 116.905C150.95 116.521 150.806 116.089 150.766 115.609H152.266C152.338 115.953 152.514 116.241 152.794 116.473C153.074 116.697 153.422 116.809 153.838 116.809C154.286 116.809 154.65 116.645 154.93 116.317C155.218 115.989 155.362 115.581 155.362 115.093C155.362 114.589 155.218 114.189 154.93 113.893C154.65 113.597 154.294 113.449 153.862 113.449C153.502 113.449 153.19 113.537 152.926 113.713C152.662 113.889 152.474 114.109 152.362 114.373H150.886L151.606 109.573H156.262V110.917H152.758L152.374 112.861C152.55 112.669 152.79 112.513 153.094 112.393C153.398 112.265 153.738 112.201 154.114 112.201C154.714 112.201 155.214 112.337 155.614 112.609C156.014 112.873 156.318 113.225 156.526 113.665C156.734 114.097 156.838 114.569 156.838 115.081C156.838 115.665 156.71 116.185 156.454 116.641C156.206 117.097 155.854 117.457 155.398 117.721C154.95 117.985 154.43 118.117 153.838 118.117ZM159.755 113.701C159.371 113.701 159.023 113.617 158.711 113.449C158.399 113.273 158.151 113.025 157.967 112.705C157.783 112.385 157.691 112.005 157.691 111.565C157.691 111.125 157.783 110.745 157.967 110.425C158.151 110.105 158.399 109.861 158.711 109.693C159.023 109.517 159.375 109.429 159.767 109.429C160.151 109.429 160.495 109.517 160.799 109.693C161.111 109.861 161.359 110.105 161.543 110.425C161.727 110.745 161.819 111.125 161.819 111.565C161.819 112.005 161.727 112.385 161.543 112.705C161.359 113.025 161.111 113.273 160.799 113.449C160.487 113.617 160.139 113.701 159.755 113.701ZM159.299 117.973L164.039 109.573H165.539L160.799 117.973H159.299ZM159.755 112.633C159.987 112.633 160.187 112.545 160.355 112.369C160.523 112.185 160.607 111.917 160.607 111.565C160.607 111.213 160.523 110.945 160.355 110.761C160.195 110.577 159.995 110.485 159.755 110.485C159.515 110.485 159.311 110.577 159.143 110.761C158.983 110.945 158.903 111.213 158.903 111.565C158.903 111.917 158.983 112.185 159.143 112.369C159.311 112.545 159.515 112.633 159.755 112.633ZM165.131 118.117C164.747 118.117 164.399 118.033 164.087 117.865C163.775 117.689 163.527 117.441 163.343 117.121C163.159 116.801 163.067 116.421 163.067 115.981C163.067 115.541 163.159 115.165 163.343 114.853C163.527 114.533 163.775 114.289 164.087 114.121C164.399 113.945 164.751 113.857 165.143 113.857C165.527 113.857 165.871 113.945 166.175 114.121C166.487 114.289 166.735 114.533 166.919 114.853C167.103 115.165 167.195 115.541 167.195 115.981C167.195 116.421 167.103 116.801 166.919 117.121C166.735 117.441 166.487 117.689 166.175 117.865C165.871 118.033 165.523 118.117 165.131 118.117ZM165.131 117.049C165.371 117.049 165.571 116.961 165.731 116.785C165.899 116.601 165.983 116.333 165.983 115.981C165.983 115.629 165.899 115.361 165.731 115.177C165.571 114.993 165.371 114.901 165.131 114.901C164.891 114.901 164.687 114.993 164.519 115.177C164.359 115.361 164.279 115.629 164.279 115.981C164.279 116.333 164.359 116.601 164.519 116.785C164.687 116.961 164.891 117.049 165.131 117.049Z" fill="#05CD99"/>
<g clip-path="url(#clip0_1506_149)">
<path d="M111.469 115.033L115.42 111.426L119.371 115.033H111.469Z" fill="#05CD99"/>
</g>
<path d="M55.4063 159.454C54.2863 159.454 53.305 159.208 52.4623 158.718C51.6303 158.227 50.9743 157.55 50.4943 156.686C50.025 155.811 49.7903 154.803 49.7903 153.662C49.7903 152.52 50.025 151.518 50.4943 150.654C50.9743 149.779 51.6303 149.096 52.4623 148.606C53.305 148.115 54.2863 147.87 55.4063 147.87C56.5156 147.87 57.4916 148.115 58.3343 148.606C59.177 149.096 59.833 149.779 60.3023 150.654C60.7716 151.518 61.0063 152.52 61.0063 153.662C61.0063 154.803 60.7716 155.811 60.3023 156.686C59.833 157.55 59.177 158.227 58.3343 158.718C57.4916 159.208 56.5156 159.454 55.4063 159.454ZM55.4063 157.614C56.473 157.614 57.321 157.262 57.9503 156.558C58.5903 155.854 58.9103 154.888 58.9103 153.662C58.9103 152.435 58.5903 151.47 57.9503 150.766C57.321 150.062 56.473 149.71 55.4063 149.71C54.3396 149.71 53.4863 150.062 52.8463 150.766C52.2063 151.47 51.8863 152.435 51.8863 153.662C51.8863 154.888 52.2063 155.854 52.8463 156.558C53.4863 157.262 54.3396 157.614 55.4063 157.614ZM62.4466 159.262V151.326H64.2546L64.4146 152.67C64.6599 152.2 65.0119 151.827 65.4706 151.55C65.9399 151.272 66.4892 151.134 67.1186 151.134C68.0999 151.134 68.8626 151.443 69.4066 152.062C69.9506 152.68 70.2226 153.587 70.2226 154.782V159.262H68.1746V154.974C68.1746 154.291 68.0359 153.768 67.7586 153.406C67.4812 153.043 67.0492 152.862 66.4626 152.862C65.8866 152.862 65.4119 153.064 65.0386 153.47C64.6759 153.875 64.4946 154.44 64.4946 155.166V159.262H62.4466ZM78.8894 159.262C78.0574 159.262 77.3908 159.059 76.8894 158.654C76.3881 158.248 76.1374 157.528 76.1374 156.494V153.038H74.7774V151.326H76.1374L76.3774 149.198H78.1854V151.326H80.3294V153.038H78.1854V156.51C78.1854 156.894 78.2654 157.16 78.4254 157.31C78.5961 157.448 78.8841 157.518 79.2894 157.518H80.2814V159.262H78.8894ZM81.7678 159.262V151.326H83.5918L83.7838 152.814C84.0718 152.302 84.4611 151.896 84.9518 151.598C85.4531 151.288 86.0398 151.134 86.7118 151.134V153.294H86.1358C85.6878 153.294 85.2878 153.363 84.9358 153.502C84.5838 153.64 84.3065 153.88 84.1038 154.222C83.9118 154.563 83.8158 155.038 83.8158 155.646V159.262H81.7678ZM90.5276 159.454C89.8449 159.454 89.2849 159.347 88.8476 159.134C88.4102 158.91 88.0849 158.616 87.8716 158.254C87.6582 157.891 87.5516 157.491 87.5516 157.054C87.5516 156.318 87.8396 155.72 88.4156 155.262C88.9916 154.803 89.8556 154.574 91.0076 154.574H93.0236V154.382C93.0236 153.838 92.8689 153.438 92.5596 153.182C92.2502 152.926 91.8662 152.798 91.4076 152.798C90.9916 152.798 90.6289 152.899 90.3196 153.102C90.0102 153.294 89.8182 153.582 89.7436 153.966H87.7436C87.7969 153.39 87.9889 152.888 88.3196 152.462C88.6609 152.035 89.0982 151.71 89.6316 151.486C90.1649 151.251 90.7622 151.134 91.4236 151.134C92.5542 151.134 93.4449 151.416 94.0956 151.982C94.7462 152.547 95.0716 153.347 95.0716 154.382V159.262H93.3276L93.1356 157.982C92.9009 158.408 92.5702 158.76 92.1436 159.038C91.7276 159.315 91.1889 159.454 90.5276 159.454ZM90.9916 157.854C91.5782 157.854 92.0316 157.662 92.3516 157.278C92.6822 156.894 92.8902 156.419 92.9756 155.854H91.2316C90.6876 155.854 90.2982 155.955 90.0636 156.158C89.8289 156.35 89.7116 156.59 89.7116 156.878C89.7116 157.187 89.8289 157.427 90.0636 157.598C90.2982 157.768 90.6076 157.854 90.9916 157.854ZM100.594 159.454C99.7833 159.454 99.0686 159.278 98.4499 158.926C97.8313 158.574 97.3406 158.083 96.9779 157.454C96.6259 156.824 96.4499 156.104 96.4499 155.294C96.4499 154.483 96.6259 153.763 96.9779 153.134C97.3406 152.504 97.8313 152.014 98.4499 151.662C99.0686 151.31 99.7833 151.134 100.594 151.134C101.607 151.134 102.461 151.4 103.154 151.934C103.847 152.456 104.29 153.182 104.482 154.11H102.322C102.215 153.726 102.002 153.427 101.682 153.214C101.373 152.99 101.005 152.878 100.578 152.878C100.013 152.878 99.5326 153.091 99.1379 153.518C98.7433 153.944 98.5459 154.536 98.5459 155.294C98.5459 156.051 98.7433 156.643 99.1379 157.07C99.5326 157.496 100.013 157.71 100.578 157.71C101.005 157.71 101.373 157.603 101.682 157.39C102.002 157.176 102.215 156.872 102.322 156.478H104.482C104.29 157.374 103.847 158.094 103.154 158.638C102.461 159.182 101.607 159.454 100.594 159.454ZM105.98 159.262V147.742H108.028V154.542L110.844 151.326H113.276L110.028 154.942L113.804 159.262H111.244L108.028 155.278V159.262H105.98Z" fill="#05CD99"/>
<rect x="28" y="146.301" width="15.0794" height="15.4349" rx="7.53971" fill="#05CD99"/>
<g clip-path="url(#clip1_1506_149)">
<path d="M34.8213 156.05L33.2171 154.446C33.0384 154.268 32.7542 154.268 32.5755 154.446C32.3967 154.625 32.3967 154.909 32.5755 155.088L34.4959 157.008C34.6746 157.187 34.9634 157.187 35.1421 157.008L40.0005 152.155C40.1792 151.976 40.1792 151.692 40.0005 151.513C39.8217 151.334 39.5376 151.334 39.3588 151.513L34.8213 156.05Z" fill="white"/>
</g>
<rect x="678" y="2.5" width="33" height="33" rx="10" fill="#F4F7FE"/>
<g clip-path="url(#clip2_1506_149)">
<path d="M689.4 16.7H689.6C690.37 16.7 691 17.33 691 18.1V25.1C691 25.87 690.37 26.5 689.6 26.5H689.4C688.63 26.5 688 25.87 688 25.1V18.1C688 17.33 688.63 16.7 689.4 16.7V16.7ZM695 12.5C695.77 12.5 696.4 13.13 696.4 13.9V25.1C696.4 25.87 695.77 26.5 695 26.5C694.23 26.5 693.6 25.87 693.6 25.1V13.9C693.6 13.13 694.23 12.5 695 12.5ZM700.6 20.5C701.37 20.5 702 21.13 702 21.9V25.1C702 25.87 701.37 26.5 700.6 26.5C699.83 26.5 699.2 25.87 699.2 25.1V21.9C699.2 21.13 699.83 20.5 700.6 20.5V20.5Z" fill="#4318FF"/>
</g>
<rect y="0.5" width="123" height="37" rx="7" fill="#F4F7FE"/>
<g clip-path="url(#clip3_1506_149)">
<path d="M27 12.75H26.25V12C26.25 11.5875 25.9125 11.25 25.5 11.25C25.0875 11.25 24.75 11.5875 24.75 12V12.75H17.25V12C17.25 11.5875 16.9125 11.25 16.5 11.25C16.0875 11.25 15.75 11.5875 15.75 12V12.75H15C14.175 12.75 13.5 13.425 13.5 14.25V26.25C13.5 27.075 14.175 27.75 15 27.75H27C27.825 27.75 28.5 27.075 28.5 26.25V14.25C28.5 13.425 27.825 12.75 27 12.75ZM26.25 26.25H15.75C15.3375 26.25 15 25.9125 15 25.5V16.5H27V25.5C27 25.9125 26.6625 26.25 26.25 26.25Z" fill="#A3AED0"/>
</g>
<path d="M36.994 24.5V14.7H43.224V15.904H38.478V18.956H42.804V20.132H38.478V23.296H43.224V24.5H36.994ZM47.428 24.668C46.5507 24.668 45.8274 24.4533 45.258 24.024C44.6887 23.5947 44.362 23.0253 44.278 22.316H45.776C45.8507 22.6333 46.028 22.9087 46.308 23.142C46.588 23.366 46.9567 23.478 47.414 23.478C47.862 23.478 48.1887 23.3847 48.394 23.198C48.5994 23.0113 48.702 22.7967 48.702 22.554C48.702 22.1993 48.5574 21.9613 48.268 21.84C47.988 21.7093 47.596 21.5927 47.092 21.49C46.7 21.406 46.308 21.294 45.916 21.154C45.5334 21.014 45.2114 20.818 44.95 20.566C44.698 20.3047 44.572 19.9547 44.572 19.516C44.572 18.9093 44.8054 18.4053 45.272 18.004C45.7387 17.5933 46.392 17.388 47.232 17.388C48.0067 17.388 48.632 17.5747 49.108 17.948C49.5934 18.3213 49.878 18.8487 49.962 19.53H48.534C48.4874 19.2313 48.3474 18.998 48.114 18.83C47.89 18.662 47.5867 18.578 47.204 18.578C46.8307 18.578 46.5414 18.6573 46.336 18.816C46.1307 18.9653 46.028 19.1613 46.028 19.404C46.028 19.6467 46.168 19.838 46.448 19.978C46.7374 20.118 47.1154 20.244 47.582 20.356C48.0487 20.4587 48.478 20.58 48.87 20.72C49.2714 20.8507 49.5934 21.0467 49.836 21.308C50.0787 21.5693 50.2 21.952 50.2 22.456C50.2094 23.0907 49.962 23.618 49.458 24.038C48.9634 24.458 48.2867 24.668 47.428 24.668ZM54.1923 24.5C53.511 24.5 52.9697 24.3367 52.5683 24.01C52.167 23.674 51.9663 23.0813 51.9663 22.232V18.802H50.7763V17.556H51.9663L52.1483 15.792H53.4503V17.556H55.4103V18.802H53.4503V22.232C53.4503 22.6147 53.5297 22.8807 53.6883 23.03C53.8563 23.17 54.141 23.24 54.5423 23.24H55.3403V24.5H54.1923ZM59.7308 24.668C59.0494 24.668 58.4428 24.5187 57.9108 24.22C57.3881 23.912 56.9774 23.4873 56.6788 22.946C56.3801 22.4047 56.2308 21.7747 56.2308 21.056C56.2308 20.328 56.3754 19.6887 56.6648 19.138C56.9634 18.5873 57.3741 18.158 57.8968 17.85C58.4288 17.542 59.0448 17.388 59.7448 17.388C60.4261 17.388 61.0188 17.542 61.5228 17.85C62.0268 18.1487 62.4188 18.55 62.6988 19.054C62.9788 19.558 63.1188 20.1133 63.1188 20.72C63.1188 20.8133 63.1141 20.916 63.1048 21.028C63.1048 21.1307 63.1001 21.2473 63.0908 21.378H57.6868C57.7334 22.05 57.9528 22.5633 58.3448 22.918C58.7461 23.2633 59.2081 23.436 59.7308 23.436C60.1508 23.436 60.5008 23.3427 60.7808 23.156C61.0701 22.96 61.2848 22.6987 61.4248 22.372H62.9088C62.7221 23.0253 62.3488 23.5713 61.7888 24.01C61.2381 24.4487 60.5521 24.668 59.7308 24.668ZM59.7308 18.606C59.2361 18.606 58.7974 18.7553 58.4148 19.054C58.0321 19.3433 57.7988 19.782 57.7148 20.37H61.6348C61.6068 19.8287 61.4154 19.3993 61.0608 19.082C60.7061 18.7647 60.2628 18.606 59.7308 18.606ZM67.6819 24.5V14.7H69.4319L72.7499 21.224L76.0539 14.7H77.8039V24.5H76.3199V17.262L73.3239 23.1H72.1759L69.1659 17.276V24.5H67.6819ZM82.7072 24.668C82.0258 24.668 81.4192 24.5187 80.8872 24.22C80.3645 23.912 79.9538 23.4873 79.6552 22.946C79.3565 22.4047 79.2072 21.7747 79.2072 21.056C79.2072 20.328 79.3518 19.6887 79.6412 19.138C79.9398 18.5873 80.3505 18.158 80.8732 17.85C81.4052 17.542 82.0212 17.388 82.7212 17.388C83.4025 17.388 83.9952 17.542 84.4992 17.85C85.0032 18.1487 85.3952 18.55 85.6752 19.054C85.9552 19.558 86.0952 20.1133 86.0952 20.72C86.0952 20.8133 86.0905 20.916 86.0812 21.028C86.0812 21.1307 86.0765 21.2473 86.0672 21.378H80.6632C80.7098 22.05 80.9292 22.5633 81.3212 22.918C81.7225 23.2633 82.1845 23.436 82.7072 23.436C83.1272 23.436 83.4772 23.3427 83.7572 23.156C84.0465 22.96 84.2612 22.6987 84.4012 22.372H85.8852C85.6985 23.0253 85.3252 23.5713 84.7652 24.01C84.2145 24.4487 83.5285 24.668 82.7072 24.668ZM82.7072 18.606C82.2125 18.606 81.7738 18.7553 81.3912 19.054C81.0085 19.3433 80.7752 19.782 80.6912 20.37H84.6112C84.5832 19.8287 84.3918 19.3993 84.0372 19.082C83.6825 18.7647 83.2392 18.606 82.7072 18.606ZM80.7192 16.842V15.736L82.6932 14.602L84.6812 15.736V16.842L82.6932 15.68L80.7192 16.842ZM90.127 24.668C89.2496 24.668 88.5263 24.4533 87.957 24.024C87.3876 23.5947 87.061 23.0253 86.977 22.316H88.475C88.5496 22.6333 88.727 22.9087 89.007 23.142C89.287 23.366 89.6556 23.478 90.113 23.478C90.561 23.478 90.8876 23.3847 91.093 23.198C91.2983 23.0113 91.401 22.7967 91.401 22.554C91.401 22.1993 91.2563 21.9613 90.967 21.84C90.687 21.7093 90.295 21.5927 89.791 21.49C89.399 21.406 89.007 21.294 88.615 21.154C88.2323 21.014 87.9103 20.818 87.649 20.566C87.397 20.3047 87.271 19.9547 87.271 19.516C87.271 18.9093 87.5043 18.4053 87.971 18.004C88.4376 17.5933 89.091 17.388 89.931 17.388C90.7056 17.388 91.331 17.5747 91.807 17.948C92.2923 18.3213 92.577 18.8487 92.661 19.53H91.233C91.1863 19.2313 91.0463 18.998 90.813 18.83C90.589 18.662 90.2856 18.578 89.903 18.578C89.5296 18.578 89.2403 18.6573 89.035 18.816C88.8296 18.9653 88.727 19.1613 88.727 19.404C88.727 19.6467 88.867 19.838 89.147 19.978C89.4363 20.118 89.8143 20.244 90.281 20.356C90.7476 20.4587 91.177 20.58 91.569 20.72C91.9703 20.8507 92.2923 21.0467 92.535 21.308C92.7776 21.5693 92.899 21.952 92.899 22.456C92.9083 23.0907 92.661 23.618 92.157 24.038C91.6623 24.458 90.9856 24.668 90.127 24.668Z" fill="#A3AED0"/>
<defs>
<filter id="filter0_d_1506_149" x="177" y="103" width="524" height="112" filterUnits="userSpaceOnUse" color-interpolation-filters="sRGB">
<feFlood flood-opacity="0" result="BackgroundImageFix"/>
<feColorMatrix in="SourceAlpha" type="matrix" values="0 0 0 0 0 0 0 0 0 0 0 0 0 0 0 0 0 0 127 0" result="hardAlpha"/>
<feOffset dy="13"/>
<feGaussianBlur stdDeviation="10.5"/>
<feColorMatrix type="matrix" values="0 0 0 0 0.262745 0 0 0 0 0.0941176 0 0 0 0 1 0 0 0 0.25 0"/>
<feBlend mode="normal" in2="BackgroundImageFix" result="effect1_dropShadow_1506_149"/>
<feBlend mode="normal" in="SourceGraphic" in2="effect1_dropShadow_1506_149" result="shape"/>
</filter>
<clipPath id="clip0_1506_149">
<rect width="18.9663" height="17.3141" fill="white" transform="translate(105.938 104.934)"/>
</clipPath>
<clipPath id="clip1_1506_149">
<rect width="11" height="11" fill="white" transform="translate(30.6953 148.625)"/>
</clipPath>
<clipPath id="clip2_1506_149">
<rect width="24" height="24" fill="white" transform="translate(683 7.5)"/>
</clipPath>
<clipPath id="clip3_1506_149">
<rect width="18" height="18" fill="white" transform="translate(12 10.5)"/>
</clipPath>
</defs>
</svg>
