<svg width="39" height="34" viewBox="0 0 39 34" fill="none" xmlns="http://www.w3.org/2000/svg">
<path d="M34.125 28.6875H17.875C17.2088 28.6875 16.6562 28.2058 16.6562 27.625C16.6562 27.0442 17.2088 26.5625 17.875 26.5625H34.125C34.7912 26.5625 35.3438 27.0442 35.3438 27.625C35.3438 28.2058 34.7912 28.6875 34.125 28.6875Z" fill="#292D32"/>
<path d="M34.125 18.7695H17.875C17.2088 18.7695 16.6562 18.2879 16.6562 17.707C16.6562 17.1262 17.2088 16.6445 17.875 16.6445H34.125C34.7912 16.6445 35.3438 17.1262 35.3438 17.707C35.3438 18.2879 34.7912 18.7695 34.125 18.7695Z" fill="#292D32"/>
<path d="M34.125 8.85547H17.875C17.2088 8.85547 16.6562 8.3738 16.6562 7.79297C16.6562 7.21214 17.2088 6.73047 17.875 6.73047H34.125C34.7912 6.73047 35.3438 7.21214 35.3438 7.79297C35.3438 8.3738 34.7912 8.85547 34.125 8.85547Z" fill="#292D32"/>
<path d="M6.49984 10.2699C6.19109 10.2699 5.88234 10.1707 5.63859 9.95823L4.01359 8.54156C3.54234 8.13073 3.54234 7.45073 4.01359 7.0399C4.48484 6.62906 5.26484 6.62906 5.73609 7.0399L6.49984 7.70573L10.5136 4.20656C10.9848 3.79573 11.7648 3.79573 12.2361 4.20656C12.7073 4.6174 12.7073 5.2974 12.2361 5.70823L7.36109 9.95823C7.11734 10.1707 6.80859 10.2699 6.49984 10.2699Z" fill="#292D32"/>
<path d="M6.49984 20.1879C6.19109 20.1879 5.88234 20.0887 5.63859 19.8762L4.01359 18.4595C3.54234 18.0487 3.54234 17.3687 4.01359 16.9579C4.48484 16.547 5.26484 16.547 5.73609 16.9579L6.49984 17.6237L10.5136 14.1245C10.9848 13.7137 11.7648 13.7137 12.2361 14.1245C12.7073 14.5354 12.7073 15.2154 12.2361 15.6262L7.36109 19.8762C7.11734 20.0887 6.80859 20.1879 6.49984 20.1879Z" fill="#292D32"/>
<path d="M9.33464 28.8438H5.66797C5.48005 28.8438 5.32422 28.6879 5.32422 28.5C5.32422 28.3121 5.48005 28.1562 5.66797 28.1562H9.33464C9.52255 28.1562 9.67839 28.3121 9.67839 28.5C9.67839 28.6879 9.52255 28.8438 9.33464 28.8438Z" fill="#292D32"/>
<path d="M7.5 30.6784C7.31208 30.6784 7.15625 30.5226 7.15625 30.3346V26.668C7.15625 26.4801 7.31208 26.3242 7.5 26.3242C7.68792 26.3242 7.84375 26.4801 7.84375 26.668V30.3346C7.84375 30.5226 7.68792 30.6784 7.5 30.6784Z" fill="#292D32"/>
<path d="M8.8763 33.4284H6.1263C3.63755 33.4284 2.57422 32.3651 2.57422 29.8763V27.1263C2.57422 24.6376 3.63755 23.5742 6.1263 23.5742H8.8763C11.3651 23.5742 12.4284 24.6376 12.4284 27.1263V29.8763C12.4284 32.3651 11.3651 33.4284 8.8763 33.4284ZM6.1263 24.2617C4.01339 24.2617 3.26172 25.0134 3.26172 27.1263V29.8763C3.26172 31.9892 4.01339 32.7409 6.1263 32.7409H8.8763C10.9892 32.7409 11.7409 31.9892 11.7409 29.8763V27.1263C11.7409 25.0134 10.9892 24.2617 8.8763 24.2617H6.1263Z" fill="#292D32"/>
</svg>
