<svg width="782" height="354" viewBox="0 0 782 354" fill="none" xmlns="http://www.w3.org/2000/svg">
<g filter="url(#filter0_d_1462_3002)">
<g clip-path="url(#clip0_1462_3002)">
<rect x="4" y="0.5" width="774" height="345" rx="20" fill="white"/>
<g filter="url(#filter1_d_1462_3002)">
<path d="M217.926 178.782C234.361 174.473 272.827 167.146 295.207 172.318C323.182 178.782 331.925 203.645 353.955 196.186C375.986 188.727 423.893 136.018 457.114 157.4C490.334 178.782 501.175 234.973 542.438 196.186C583.701 157.4 580.204 137.012 614.474 140.99C648.744 144.968 705.044 158.394 725.326 140.99" stroke="#4318FF" stroke-width="4" stroke-linecap="round"/>
</g>
<path d="M217.926 236.256C234.361 231.95 256.042 209.727 278.422 214.894C306.397 221.352 318.287 264.083 340.317 256.631C362.348 249.179 421.184 206.046 457.114 214.894C501.524 225.83 495.23 275.005 536.493 236.256C577.757 197.506 602.934 220.862 637.204 224.836C671.474 228.811 705.044 215.887 725.326 198.5" stroke="#6AD2FF" stroke-width="4" stroke-linecap="round"/>
<ellipse cx="441.176" cy="152.5" rx="6.98083" ry="8" fill="#4318FF"/>
<ellipse cx="441.176" cy="152.5" rx="4.36301" ry="5" fill="white"/>
<path d="M412.5 111.5C412.5 108.186 415.186 105.5 418.5 105.5H465.386C468.7 105.5 471.386 108.186 471.386 111.5V128.132C471.386 131.445 468.7 134.132 465.386 134.132H451.691C448.265 134.132 445.022 135.682 442.871 138.349C442.394 138.941 441.492 138.941 441.015 138.349C438.864 135.682 435.621 134.132 432.195 134.132H418.5C415.186 134.132 412.5 131.445 412.5 128.132V111.5Z" fill="#4318FF"/>
<path d="M423.612 123.664V122.817C422.901 122.736 422.321 122.487 421.874 122.069C421.427 121.651 421.196 121.09 421.181 120.386H422.666C422.681 120.679 422.769 120.936 422.93 121.156C423.099 121.376 423.326 121.526 423.612 121.607V119.286C423.546 119.264 423.476 119.242 423.403 119.22C423.337 119.198 423.267 119.176 423.194 119.154C422.6 118.949 422.145 118.685 421.83 118.362C421.522 118.039 421.368 117.61 421.368 117.075C421.361 116.444 421.566 115.938 421.984 115.557C422.402 115.168 422.945 114.945 423.612 114.886V113.995H424.349V114.897C425.009 114.963 425.541 115.194 425.944 115.59C426.355 115.979 426.571 116.481 426.593 117.097H425.086C425.079 116.884 425.009 116.69 424.877 116.514C424.752 116.331 424.576 116.202 424.349 116.129V118.175C424.408 118.197 424.466 118.219 424.525 118.241C424.584 118.256 424.642 118.274 424.701 118.296C425.082 118.428 425.431 118.582 425.746 118.758C426.061 118.934 426.314 119.169 426.505 119.462C426.696 119.748 426.791 120.118 426.791 120.573C426.791 120.954 426.696 121.31 426.505 121.64C426.322 121.97 426.047 122.245 425.68 122.465C425.321 122.678 424.877 122.799 424.349 122.828V123.664H423.612ZM422.842 116.976C422.842 117.211 422.912 117.401 423.051 117.548C423.19 117.687 423.377 117.808 423.612 117.911V116.085C423.385 116.129 423.198 116.228 423.051 116.382C422.912 116.536 422.842 116.734 422.842 116.976ZM425.295 120.672C425.295 120.379 425.207 120.148 425.031 119.979C424.855 119.81 424.628 119.667 424.349 119.55V121.64C424.642 121.596 424.873 121.49 425.042 121.321C425.211 121.152 425.295 120.936 425.295 120.672ZM428.635 122.707V116.613L427.37 116.91V115.832L429.229 115.007H430.098V122.707H428.635ZM434.528 122.839C433.817 122.839 433.208 122.674 432.702 122.344C432.196 122.007 431.804 121.541 431.525 120.947C431.254 120.346 431.118 119.649 431.118 118.857C431.118 118.072 431.254 117.379 431.525 116.778C431.804 116.177 432.196 115.711 432.702 115.381C433.208 115.044 433.817 114.875 434.528 114.875C435.24 114.875 435.848 115.044 436.354 115.381C436.86 115.711 437.249 116.177 437.52 116.778C437.799 117.379 437.938 118.072 437.938 118.857C437.938 119.649 437.799 120.346 437.52 120.947C437.249 121.541 436.86 122.007 436.354 122.344C435.848 122.674 435.24 122.839 434.528 122.839ZM434.528 121.574C435.108 121.574 435.581 121.332 435.947 120.848C436.314 120.364 436.497 119.7 436.497 118.857C436.497 118.014 436.314 117.35 435.947 116.866C435.581 116.382 435.108 116.14 434.528 116.14C433.942 116.14 433.465 116.382 433.098 116.866C432.739 117.35 432.559 118.014 432.559 118.857C432.559 119.7 432.739 120.364 433.098 120.848C433.465 121.332 433.942 121.574 434.528 121.574ZM441.678 122.839C441.15 122.839 440.673 122.747 440.248 122.564C439.823 122.373 439.482 122.106 439.225 121.761C438.976 121.416 438.851 121.017 438.851 120.562C438.851 120.093 438.972 119.682 439.214 119.33C439.463 118.978 439.79 118.725 440.193 118.571C439.841 118.417 439.562 118.197 439.357 117.911C439.152 117.618 439.049 117.291 439.049 116.932C439.049 116.565 439.148 116.228 439.346 115.92C439.544 115.605 439.837 115.352 440.226 115.161C440.622 114.97 441.106 114.875 441.678 114.875C442.25 114.875 442.73 114.97 443.119 115.161C443.508 115.352 443.801 115.605 443.999 115.92C444.197 116.228 444.296 116.565 444.296 116.932C444.296 117.284 444.19 117.61 443.977 117.911C443.772 118.204 443.497 118.424 443.152 118.571C443.563 118.725 443.889 118.978 444.131 119.33C444.373 119.682 444.494 120.093 444.494 120.562C444.494 121.017 444.369 121.416 444.12 121.761C443.871 122.106 443.53 122.373 443.097 122.564C442.672 122.747 442.199 122.839 441.678 122.839ZM441.678 118.153C442.059 118.153 442.36 118.054 442.58 117.856C442.8 117.658 442.91 117.405 442.91 117.097C442.91 116.76 442.8 116.496 442.58 116.305C442.367 116.114 442.067 116.019 441.678 116.019C441.282 116.019 440.978 116.114 440.765 116.305C440.552 116.496 440.446 116.76 440.446 117.097C440.446 117.412 440.552 117.669 440.765 117.867C440.985 118.058 441.289 118.153 441.678 118.153ZM441.678 121.662C442.147 121.662 442.503 121.548 442.745 121.321C442.987 121.086 443.108 120.793 443.108 120.441C443.108 120.052 442.98 119.748 442.723 119.528C442.474 119.308 442.125 119.198 441.678 119.198C441.231 119.198 440.875 119.308 440.611 119.528C440.354 119.748 440.226 120.052 440.226 120.441C440.226 120.793 440.347 121.086 440.589 121.321C440.838 121.548 441.201 121.662 441.678 121.662ZM446.231 122.784C445.974 122.784 445.762 122.703 445.593 122.542C445.432 122.381 445.351 122.186 445.351 121.959C445.351 121.724 445.432 121.526 445.593 121.365C445.762 121.204 445.974 121.123 446.231 121.123C446.488 121.123 446.697 121.204 446.858 121.365C447.027 121.526 447.111 121.724 447.111 121.959C447.111 122.186 447.027 122.381 446.858 122.542C446.697 122.703 446.488 122.784 446.231 122.784ZM450.798 122.839C450.087 122.839 449.478 122.674 448.972 122.344C448.466 122.007 448.074 121.541 447.795 120.947C447.524 120.346 447.388 119.649 447.388 118.857C447.388 118.072 447.524 117.379 447.795 116.778C448.074 116.177 448.466 115.711 448.972 115.381C449.478 115.044 450.087 114.875 450.798 114.875C451.509 114.875 452.118 115.044 452.624 115.381C453.13 115.711 453.519 116.177 453.79 116.778C454.069 117.379 454.208 118.072 454.208 118.857C454.208 119.649 454.069 120.346 453.79 120.947C453.519 121.541 453.13 122.007 452.624 122.344C452.118 122.674 451.509 122.839 450.798 122.839ZM450.798 121.574C451.377 121.574 451.85 121.332 452.217 120.848C452.584 120.364 452.767 119.7 452.767 118.857C452.767 118.014 452.584 117.35 452.217 116.866C451.85 116.382 451.377 116.14 450.798 116.14C450.211 116.14 449.735 116.382 449.368 116.866C449.009 117.35 448.829 118.014 448.829 118.857C448.829 119.7 449.009 120.364 449.368 120.848C449.735 121.332 450.211 121.574 450.798 121.574ZM458.388 122.839C457.676 122.839 457.068 122.674 456.562 122.344C456.056 122.007 455.663 121.541 455.385 120.947C455.113 120.346 454.978 119.649 454.978 118.857C454.978 118.072 455.113 117.379 455.385 116.778C455.663 116.177 456.056 115.711 456.562 115.381C457.068 115.044 457.676 114.875 458.388 114.875C459.099 114.875 459.708 115.044 460.214 115.381C460.72 115.711 461.108 116.177 461.38 116.778C461.658 117.379 461.798 118.072 461.798 118.857C461.798 119.649 461.658 120.346 461.38 120.947C461.108 121.541 460.72 122.007 460.214 122.344C459.708 122.674 459.099 122.839 458.388 122.839ZM458.388 121.574C458.967 121.574 459.44 121.332 459.807 120.848C460.173 120.364 460.357 119.7 460.357 118.857C460.357 118.014 460.173 117.35 459.807 116.866C459.44 116.382 458.967 116.14 458.388 116.14C457.801 116.14 457.324 116.382 456.958 116.866C456.598 117.35 456.419 118.014 456.419 118.857C456.419 119.7 456.598 120.364 456.958 120.848C457.324 121.332 457.801 121.574 458.388 121.574Z" fill="white"/>
<path d="M218.801 310.644C218.185 310.644 217.645 310.536 217.181 310.32C216.717 310.104 216.353 309.796 216.089 309.396C215.833 308.996 215.701 308.52 215.693 307.968H217.037C217.045 308.416 217.201 308.796 217.505 309.108C217.809 309.42 218.237 309.576 218.79 309.576C219.278 309.576 219.658 309.46 219.93 309.228C220.21 308.988 220.35 308.684 220.35 308.316C220.35 308.02 220.282 307.78 220.146 307.596C220.018 307.412 219.838 307.26 219.605 307.14C219.382 307.02 219.122 306.912 218.826 306.816C218.53 306.72 218.217 306.616 217.889 306.504C217.241 306.288 216.753 306.008 216.425 305.664C216.105 305.32 215.945 304.868 215.945 304.308C215.937 303.836 216.045 303.424 216.269 303.072C216.501 302.72 216.821 302.448 217.229 302.256C217.645 302.056 218.129 301.956 218.682 301.956C219.225 301.956 219.701 302.056 220.109 302.256C220.526 302.456 220.85 302.736 221.081 303.096C221.314 303.448 221.434 303.86 221.441 304.332H220.098C220.098 304.116 220.042 303.912 219.93 303.72C219.818 303.52 219.654 303.356 219.438 303.228C219.221 303.1 218.957 303.036 218.645 303.036C218.245 303.028 217.913 303.128 217.649 303.336C217.393 303.544 217.265 303.832 217.265 304.2C217.265 304.528 217.361 304.78 217.553 304.956C217.745 305.132 218.009 305.28 218.345 305.4C218.681 305.512 219.066 305.644 219.497 305.796C219.914 305.932 220.286 306.096 220.613 306.288C220.941 306.48 221.201 306.732 221.393 307.044C221.594 307.356 221.694 307.752 221.694 308.232C221.694 308.656 221.586 309.052 221.37 309.42C221.154 309.78 220.83 310.076 220.398 310.308C219.965 310.532 219.433 310.644 218.801 310.644ZM222.844 310.5V302.1H228.184V303.132H224.116V305.748H227.824V306.756H224.116V309.468H228.184V310.5H222.844ZM229.46 310.5V302.1H232.4C233.056 302.1 233.6 302.212 234.032 302.436C234.464 302.652 234.784 302.952 234.992 303.336C235.208 303.712 235.316 304.14 235.316 304.62C235.316 305.076 235.212 305.496 235.004 305.88C234.804 306.256 234.488 306.556 234.056 306.78C233.624 307.004 233.072 307.116 232.4 307.116H230.732V310.5H229.46ZM230.732 306.072H232.34C232.94 306.072 233.368 305.944 233.624 305.688C233.888 305.424 234.02 305.068 234.02 304.62C234.02 304.156 233.888 303.796 233.624 303.54C233.368 303.276 232.94 303.144 232.34 303.144H230.732V306.072Z" fill="#A3AED0"/>
<path d="M315.767 310.644C314.935 310.644 314.207 310.46 313.583 310.092C312.959 309.724 312.471 309.216 312.119 308.568C311.767 307.912 311.591 307.156 311.591 306.3C311.591 305.444 311.767 304.692 312.119 304.044C312.471 303.388 312.959 302.876 313.583 302.508C314.207 302.14 314.935 301.956 315.767 301.956C316.599 301.956 317.327 302.14 317.951 302.508C318.575 302.876 319.059 303.388 319.403 304.044C319.755 304.692 319.931 305.444 319.931 306.3C319.931 307.156 319.755 307.912 319.403 308.568C319.059 309.216 318.575 309.724 317.951 310.092C317.327 310.46 316.599 310.644 315.767 310.644ZM315.767 309.504C316.343 309.504 316.843 309.376 317.267 309.12C317.699 308.864 318.035 308.496 318.275 308.016C318.515 307.536 318.635 306.964 318.635 306.3C318.635 305.636 318.515 305.064 318.275 304.584C318.035 304.104 317.699 303.736 317.267 303.48C316.843 303.224 316.343 303.096 315.767 303.096C315.191 303.096 314.687 303.224 314.255 303.48C313.823 303.736 313.487 304.104 313.247 304.584C313.015 305.064 312.899 305.636 312.899 306.3C312.899 306.964 313.015 307.536 313.247 308.016C313.487 308.496 313.823 308.864 314.255 309.12C314.687 309.376 315.191 309.504 315.767 309.504ZM324.852 310.644C324.02 310.644 323.3 310.464 322.692 310.104C322.092 309.736 321.628 309.228 321.3 308.58C320.972 307.924 320.808 307.168 320.808 306.312C320.808 305.448 320.972 304.692 321.3 304.044C321.628 303.388 322.092 302.876 322.692 302.508C323.3 302.14 324.02 301.956 324.852 301.956C325.836 301.956 326.64 302.196 327.264 302.676C327.888 303.156 328.284 303.828 328.452 304.692H327.036C326.924 304.204 326.684 303.816 326.316 303.528C325.948 303.24 325.456 303.096 324.84 303.096C324 303.096 323.336 303.384 322.848 303.96C322.36 304.528 322.116 305.312 322.116 306.312C322.116 307.304 322.36 308.084 322.848 308.652C323.336 309.22 324 309.504 324.84 309.504C325.456 309.504 325.948 309.368 326.316 309.096C326.684 308.824 326.924 308.452 327.036 307.98H328.452C328.284 308.812 327.888 309.464 327.264 309.936C326.64 310.408 325.836 310.644 324.852 310.644ZM331.426 310.5V303.132H328.942V302.1H335.17V303.132H332.698V310.5H331.426Z" fill="#A3AED0"/>
<path d="M409.281 310.5V302.1H410.553L414.765 308.424V302.1H416.037V310.5H414.765L410.553 304.176V310.5H409.281ZM421.378 310.644C420.546 310.644 419.818 310.46 419.194 310.092C418.57 309.724 418.082 309.216 417.73 308.568C417.378 307.912 417.202 307.156 417.202 306.3C417.202 305.444 417.378 304.692 417.73 304.044C418.082 303.388 418.57 302.876 419.194 302.508C419.818 302.14 420.546 301.956 421.378 301.956C422.21 301.956 422.938 302.14 423.562 302.508C424.186 302.876 424.67 303.388 425.014 304.044C425.366 304.692 425.542 305.444 425.542 306.3C425.542 307.156 425.366 307.912 425.014 308.568C424.67 309.216 424.186 309.724 423.562 310.092C422.938 310.46 422.21 310.644 421.378 310.644ZM421.378 309.504C421.954 309.504 422.454 309.376 422.878 309.12C423.31 308.864 423.646 308.496 423.886 308.016C424.126 307.536 424.246 306.964 424.246 306.3C424.246 305.636 424.126 305.064 423.886 304.584C423.646 304.104 423.31 303.736 422.878 303.48C422.454 303.224 421.954 303.096 421.378 303.096C420.802 303.096 420.298 303.224 419.866 303.48C419.434 303.736 419.098 304.104 418.858 304.584C418.626 305.064 418.51 305.636 418.51 306.3C418.51 306.964 418.626 307.536 418.858 308.016C419.098 308.496 419.434 308.864 419.866 309.12C420.298 309.376 420.802 309.504 421.378 309.504ZM428.899 310.5L425.791 302.1H427.147L429.667 309.18L432.199 302.1H433.543L430.435 310.5H428.899Z" fill="#A3AED0"/>
<path d="M508 310.5V302.1H510.724C511.708 302.1 512.516 302.272 513.148 302.616C513.788 302.96 514.26 303.448 514.564 304.08C514.876 304.704 515.032 305.448 515.032 306.312C515.032 307.168 514.876 307.912 514.564 308.544C514.26 309.168 513.788 309.652 513.148 309.996C512.516 310.332 511.708 310.5 510.724 310.5H508ZM509.272 309.42H510.676C511.436 309.42 512.036 309.296 512.476 309.048C512.924 308.8 513.244 308.444 513.436 307.98C513.636 307.516 513.736 306.96 513.736 306.312C513.736 305.664 513.636 305.104 513.436 304.632C513.244 304.16 512.924 303.8 512.476 303.552C512.036 303.296 511.436 303.168 510.676 303.168H509.272V309.42ZM516.198 310.5V302.1H521.538V303.132H517.47V305.748H521.178V306.756H517.47V309.468H521.538V310.5H516.198ZM526.557 310.644C525.725 310.644 525.005 310.464 524.397 310.104C523.797 309.736 523.333 309.228 523.005 308.58C522.677 307.924 522.513 307.168 522.513 306.312C522.513 305.448 522.677 304.692 523.005 304.044C523.333 303.388 523.797 302.876 524.397 302.508C525.005 302.14 525.725 301.956 526.557 301.956C527.541 301.956 528.345 302.196 528.969 302.676C529.593 303.156 529.989 303.828 530.157 304.692H528.741C528.629 304.204 528.389 303.816 528.021 303.528C527.653 303.24 527.161 303.096 526.545 303.096C525.705 303.096 525.041 303.384 524.553 303.96C524.065 304.528 523.821 305.312 523.821 306.312C523.821 307.304 524.065 308.084 524.553 308.652C525.041 309.22 525.705 309.504 526.545 309.504C527.161 309.504 527.653 309.368 528.021 309.096C528.389 308.824 528.629 308.452 528.741 307.98H530.157C529.989 308.812 529.593 309.464 528.969 309.936C528.345 310.408 527.541 310.644 526.557 310.644Z" fill="#A3AED0"/>
<path d="M608.632 310.644C607.848 310.644 607.224 310.424 606.76 309.984C606.304 309.544 606.076 308.924 606.076 308.124H607.348C607.348 308.524 607.444 308.856 607.636 309.12C607.836 309.384 608.16 309.516 608.608 309.516C609.048 309.516 609.36 309.392 609.544 309.144C609.728 308.888 609.82 308.564 609.82 308.172V302.1H611.092V308.172C611.092 308.964 610.872 309.576 610.432 310.008C609.992 310.432 609.392 310.644 608.632 310.644ZM611.648 310.5L614.744 302.1H616.136L619.208 310.5H617.864L617.144 308.448H613.712L612.992 310.5H611.648ZM614.072 307.44H616.784L615.428 303.612L614.072 307.44ZM620.139 310.5V302.1H621.411L625.623 308.424V302.1H626.895V310.5H625.623L621.411 304.176V310.5H620.139Z" fill="#A3AED0"/>
<path d="M705.278 310.5V302.1H710.546V303.132H706.55V305.784H709.862V306.804H706.55V310.5H705.278ZM711.553 310.5V302.1H716.893V303.132H712.825V305.748H716.533V306.756H712.825V309.468H716.893V310.5H711.553ZM718.169 310.5V302.1H721.337C722.209 302.1 722.869 302.304 723.317 302.712C723.765 303.12 723.989 303.632 723.989 304.248C723.989 304.784 723.845 305.212 723.557 305.532C723.269 305.844 722.921 306.056 722.513 306.168C722.833 306.232 723.117 306.36 723.365 306.552C723.621 306.744 723.821 306.984 723.965 307.272C724.109 307.56 724.181 307.872 724.181 308.208C724.181 308.64 724.073 309.032 723.857 309.384C723.649 309.728 723.341 310 722.933 310.2C722.525 310.4 722.025 310.5 721.433 310.5H718.169ZM719.441 305.7H721.181C721.669 305.7 722.041 305.588 722.297 305.364C722.553 305.132 722.681 304.816 722.681 304.416C722.681 304.024 722.553 303.712 722.297 303.48C722.049 303.248 721.669 303.132 721.157 303.132H719.441V305.7ZM719.441 309.456H721.265C721.777 309.456 722.173 309.336 722.453 309.096C722.741 308.856 722.885 308.52 722.885 308.088C722.885 307.656 722.737 307.316 722.441 307.068C722.145 306.812 721.745 306.684 721.241 306.684H719.441V309.456Z" fill="#A3AED0"/>
<rect x="713" y="28.5" width="33" height="33" rx="10" fill="#F4F7FE"/>
<g clip-path="url(#clip1_1462_3002)">
<path d="M724.4 42.7H724.6C725.37 42.7 726 43.33 726 44.1V51.1C726 51.87 725.37 52.5 724.6 52.5H724.4C723.63 52.5 723 51.87 723 51.1V44.1C723 43.33 723.63 42.7 724.4 42.7ZM730 38.5C730.77 38.5 731.4 39.13 731.4 39.9V51.1C731.4 51.87 730.77 52.5 730 52.5C729.23 52.5 728.6 51.87 728.6 51.1V39.9C728.6 39.13 729.23 38.5 730 38.5ZM735.6 46.5C736.37 46.5 737 47.13 737 47.9V51.1C737 51.87 736.37 52.5 735.6 52.5C734.83 52.5 734.2 51.87 734.2 51.1V47.9C734.2 47.13 734.83 46.5 735.6 46.5Z" fill="#4318FF"/>
</g>
<path d="M38.5947 145.395V136.799H35.6967V135.595H42.9627V136.799H40.0787V145.395H38.5947ZM46.0056 145.563C45.3429 145.563 44.7456 145.413 44.2136 145.115C43.6909 144.807 43.2756 144.382 42.9676 143.841C42.6596 143.29 42.5056 142.651 42.5056 141.923C42.5056 141.195 42.6596 140.56 42.9676 140.019C43.2849 139.468 43.7096 139.043 44.2416 138.745C44.7736 138.437 45.3663 138.283 46.0196 138.283C46.6823 138.283 47.2749 138.437 47.7976 138.745C48.3296 139.043 48.7496 139.468 49.0576 140.019C49.3749 140.56 49.5336 141.195 49.5336 141.923C49.5336 142.651 49.3749 143.29 49.0576 143.841C48.7496 144.382 48.3296 144.807 47.7976 145.115C47.2656 145.413 46.6683 145.563 46.0056 145.563ZM46.0056 144.289C46.3603 144.289 46.6869 144.2 46.9856 144.023C47.2936 143.845 47.5409 143.584 47.7276 143.239C47.9143 142.884 48.0076 142.445 48.0076 141.923C48.0076 141.4 47.9143 140.966 47.7276 140.621C47.5503 140.266 47.3076 140 46.9996 139.823C46.7009 139.645 46.3743 139.557 46.0196 139.557C45.6649 139.557 45.3336 139.645 45.0256 139.823C44.7269 140 44.4843 140.266 44.2976 140.621C44.1109 140.966 44.0176 141.4 44.0176 141.923C44.0176 142.445 44.1109 142.884 44.2976 143.239C44.4843 143.584 44.7269 143.845 45.0256 144.023C45.3243 144.2 45.6509 144.289 46.0056 144.289ZM53.497 145.395C52.8157 145.395 52.2744 145.231 51.873 144.905C51.4717 144.569 51.271 143.976 51.271 143.127V139.697H50.081V138.451H51.271L51.453 136.687H52.755V138.451H54.715V139.697H52.755V143.127C52.755 143.509 52.8344 143.775 52.993 143.925C53.161 144.065 53.4457 144.135 53.847 144.135H54.645V145.395H53.497ZM58.3172 145.563C57.7292 145.563 57.2439 145.465 56.8612 145.269C56.4785 145.073 56.1939 144.816 56.0072 144.499C55.8205 144.172 55.7272 143.817 55.7272 143.435C55.7272 142.763 55.9885 142.231 56.5112 141.839C57.0339 141.447 57.7805 141.251 58.7512 141.251H60.5712V141.125C60.5712 140.583 60.4219 140.177 60.1232 139.907C59.8339 139.636 59.4559 139.501 58.9892 139.501C58.5785 139.501 58.2192 139.603 57.9112 139.809C57.6125 140.005 57.4305 140.299 57.3652 140.691H55.8812C55.9279 140.187 56.0959 139.757 56.3852 139.403C56.6839 139.039 57.0572 138.763 57.5052 138.577C57.9625 138.381 58.4619 138.283 59.0032 138.283C59.9739 138.283 60.7252 138.539 61.2572 139.053C61.7892 139.557 62.0552 140.247 62.0552 141.125V145.395H60.7672L60.6412 144.205C60.4452 144.587 60.1605 144.909 59.7872 145.171C59.4139 145.432 58.9239 145.563 58.3172 145.563ZM58.6112 144.359C59.0125 144.359 59.3485 144.265 59.6192 144.079C59.8992 143.883 60.1139 143.626 60.2632 143.309C60.4219 142.991 60.5199 142.641 60.5572 142.259H58.9052C58.3172 142.259 57.8972 142.361 57.6452 142.567C57.4025 142.772 57.2812 143.029 57.2812 143.337C57.2812 143.654 57.3979 143.906 57.6312 144.093C57.8739 144.27 58.2005 144.359 58.6112 144.359ZM63.5055 145.395V135.315H64.9895V145.395H63.5055ZM73.1261 145.563C72.4075 145.563 71.7775 145.437 71.2361 145.185C70.6948 144.933 70.2701 144.573 69.9621 144.107C69.6635 143.64 69.5095 143.085 69.5001 142.441H71.0681C71.0775 142.963 71.2595 143.407 71.6141 143.771C71.9688 144.135 72.4681 144.317 73.1121 144.317C73.6815 144.317 74.1248 144.181 74.4421 143.911C74.7688 143.631 74.9321 143.276 74.9321 142.847C74.9321 142.501 74.8528 142.221 74.6941 142.007C74.5448 141.792 74.3348 141.615 74.0641 141.475C73.8028 141.335 73.4995 141.209 73.1541 141.097C72.8088 140.985 72.4448 140.863 72.0621 140.733C71.3061 140.481 70.7368 140.154 70.3541 139.753C69.9808 139.351 69.7941 138.824 69.7941 138.171C69.7848 137.62 69.9108 137.139 70.1721 136.729C70.4428 136.318 70.8161 136.001 71.2921 135.777C71.7775 135.543 72.3421 135.427 72.9861 135.427C73.6208 135.427 74.1761 135.543 74.6521 135.777C75.1375 136.01 75.5155 136.337 75.7861 136.757C76.0568 137.167 76.1968 137.648 76.2061 138.199H74.6381C74.6381 137.947 74.5728 137.709 74.4421 137.485C74.3115 137.251 74.1201 137.06 73.8681 136.911C73.6161 136.761 73.3081 136.687 72.9441 136.687C72.4775 136.677 72.0901 136.794 71.7821 137.037C71.4835 137.279 71.3341 137.615 71.3341 138.045C71.3341 138.427 71.4461 138.721 71.6701 138.927C71.8941 139.132 72.2021 139.305 72.5941 139.445C72.9861 139.575 73.4341 139.729 73.9381 139.907C74.4235 140.065 74.8575 140.257 75.2401 140.481C75.6228 140.705 75.9261 140.999 76.1501 141.363C76.3835 141.727 76.5001 142.189 76.5001 142.749C76.5001 143.243 76.3741 143.705 76.1221 144.135C75.8701 144.555 75.4921 144.9 74.9881 145.171C74.4841 145.432 73.8635 145.563 73.1261 145.563ZM77.7866 148.475V138.451H79.1166L79.2706 139.529C79.4946 139.202 79.8026 138.913 80.1946 138.661C80.5866 138.409 81.0906 138.283 81.7066 138.283C82.3786 138.283 82.9713 138.441 83.4846 138.759C83.9979 139.076 84.3993 139.51 84.6886 140.061C84.9873 140.611 85.1366 141.237 85.1366 141.937C85.1366 142.637 84.9873 143.262 84.6886 143.813C84.3993 144.354 83.9979 144.783 83.4846 145.101C82.9713 145.409 82.3739 145.563 81.6926 145.563C81.1513 145.563 80.6706 145.455 80.2506 145.241C79.8399 145.026 79.5133 144.723 79.2706 144.331V148.475H77.7866ZM81.4406 144.275C82.0753 144.275 82.5979 144.06 83.0086 143.631C83.4193 143.192 83.6246 142.623 83.6246 141.923C83.6246 141.465 83.5313 141.059 83.3446 140.705C83.1579 140.35 82.9013 140.075 82.5746 139.879C82.2479 139.673 81.8699 139.571 81.4406 139.571C80.8059 139.571 80.2833 139.79 79.8726 140.229C79.4713 140.667 79.2706 141.232 79.2706 141.923C79.2706 142.623 79.4713 143.192 79.8726 143.631C80.2833 144.06 80.8059 144.275 81.4406 144.275ZM89.7097 145.563C89.0283 145.563 88.4217 145.413 87.8897 145.115C87.367 144.807 86.9563 144.382 86.6577 143.841C86.359 143.299 86.2097 142.669 86.2097 141.951C86.2097 141.223 86.3543 140.583 86.6437 140.033C86.9423 139.482 87.353 139.053 87.8757 138.745C88.4077 138.437 89.0237 138.283 89.7237 138.283C90.405 138.283 90.9977 138.437 91.5017 138.745C92.0057 139.043 92.3977 139.445 92.6777 139.949C92.9577 140.453 93.0977 141.008 93.0977 141.615C93.0977 141.708 93.093 141.811 93.0837 141.923C93.0837 142.025 93.079 142.142 93.0697 142.273H87.6657C87.7123 142.945 87.9317 143.458 88.3237 143.813C88.725 144.158 89.187 144.331 89.7097 144.331C90.1297 144.331 90.4797 144.237 90.7597 144.051C91.049 143.855 91.2637 143.593 91.4037 143.267H92.8877C92.701 143.92 92.3277 144.466 91.7677 144.905C91.217 145.343 90.531 145.563 89.7097 145.563ZM89.7097 139.501C89.215 139.501 88.7763 139.65 88.3937 139.949C88.011 140.238 87.7777 140.677 87.6937 141.265H91.6137C91.5857 140.723 91.3943 140.294 91.0397 139.977C90.685 139.659 90.2417 139.501 89.7097 139.501ZM94.3575 145.395V138.451H95.6735L95.7855 139.669C96.0001 139.239 96.3128 138.903 96.7235 138.661C97.1435 138.409 97.6241 138.283 98.1655 138.283C99.0055 138.283 99.6635 138.544 100.139 139.067C100.625 139.589 100.867 140.369 100.867 141.405V145.395H99.3975V141.559C99.3975 140.215 98.8468 139.543 97.7455 139.543C97.1948 139.543 96.7375 139.739 96.3735 140.131C96.0188 140.523 95.8415 141.083 95.8415 141.811V145.395H94.3575ZM105.247 145.395C104.566 145.395 104.025 145.231 103.623 144.905C103.222 144.569 103.021 143.976 103.021 143.127V139.697H101.831V138.451H103.021L103.203 136.687H104.505V138.451H106.465V139.697H104.505V143.127C104.505 143.509 104.585 143.775 104.743 143.925C104.911 144.065 105.196 144.135 105.597 144.135H106.395V145.395H105.247Z" fill="#A3AED0"/>
<path d="M44.2807 126.458V123.84C42.082 123.591 40.2914 122.82 38.9087 121.528C37.526 120.236 36.812 118.502 36.7667 116.326H41.3567C41.402 117.233 41.674 118.026 42.1727 118.706C42.694 119.386 43.3967 119.851 44.2807 120.1V112.926C44.0767 112.858 43.8614 112.79 43.6347 112.722C43.4307 112.654 43.2154 112.586 42.9887 112.518C41.1527 111.883 39.7474 111.067 38.7727 110.07C37.8207 109.073 37.3447 107.747 37.3447 106.092C37.322 104.143 37.9567 102.579 39.2487 101.4C40.5407 100.199 42.218 99.5073 44.2807 99.326V96.572H46.5587V99.36C48.5987 99.564 50.242 100.278 51.4887 101.502C52.758 102.703 53.4267 104.256 53.4947 106.16H48.8367C48.814 105.503 48.5987 104.902 48.1907 104.358C47.8054 103.791 47.2614 103.395 46.5587 103.168V109.492C46.74 109.56 46.9214 109.628 47.1027 109.696C47.284 109.741 47.4654 109.798 47.6467 109.866C48.8254 110.274 49.902 110.75 50.8767 111.294C51.8514 111.838 52.6334 112.563 53.2227 113.47C53.812 114.354 54.1067 115.499 54.1067 116.904C54.1067 118.083 53.812 119.182 53.2227 120.202C52.656 121.222 51.806 122.072 50.6727 122.752C49.562 123.409 48.1907 123.783 46.5587 123.874V126.458H44.2807ZM41.9007 105.786C41.9007 106.511 42.116 107.101 42.5467 107.554C42.9774 107.985 43.5554 108.359 44.2807 108.676V103.032C43.578 103.168 43 103.474 42.5467 103.95C42.116 104.426 41.9007 105.038 41.9007 105.786ZM49.4827 117.21C49.4827 116.303 49.2107 115.589 48.6667 115.068C48.1227 114.547 47.42 114.105 46.5587 113.742V120.202C47.4654 120.066 48.1794 119.737 48.7007 119.216C49.222 118.695 49.4827 118.026 49.4827 117.21ZM65.0098 123.908C63.4458 123.908 62.0291 123.636 60.7598 123.092C59.4905 122.525 58.4705 121.664 57.6998 120.508C56.9291 119.352 56.5211 117.901 56.4758 116.156H60.7598C60.7825 117.312 61.1565 118.287 61.8818 119.08C62.6298 119.851 63.6725 120.236 65.0098 120.236C66.2791 120.236 67.2538 119.885 67.9338 119.182C68.6138 118.479 68.9538 117.595 68.9538 116.53C68.9538 115.283 68.5005 114.343 67.5938 113.708C66.7098 113.051 65.5651 112.722 64.1598 112.722H62.3918V109.152H64.1938C65.3498 109.152 66.3131 108.88 67.0838 108.336C67.8545 107.792 68.2398 106.987 68.2398 105.922C68.2398 105.038 67.9451 104.335 67.3558 103.814C66.7891 103.27 65.9958 102.998 64.9758 102.998C63.8651 102.998 62.9925 103.327 62.3578 103.984C61.7458 104.641 61.4058 105.446 61.3378 106.398H57.0878C57.1785 104.199 57.9378 102.465 59.3658 101.196C60.8165 99.9267 62.6865 99.292 64.9758 99.292C66.6078 99.292 67.9791 99.5867 69.0898 100.176C70.2231 100.743 71.0731 101.502 71.6398 102.454C72.2291 103.406 72.5238 104.46 72.5238 105.616C72.5238 106.953 72.1498 108.087 71.4018 109.016C70.6765 109.923 69.7698 110.535 68.6818 110.852C70.0191 111.124 71.1071 111.781 71.9458 112.824C72.7845 113.844 73.2038 115.136 73.2038 116.7C73.2038 118.015 72.8865 119.216 72.2518 120.304C71.6171 121.392 70.6878 122.265 69.4638 122.922C68.2625 123.579 66.7778 123.908 65.0098 123.908ZM77.8589 123.5L86.8349 103.406H75.1049V99.7H91.3229V102.794L82.3809 123.5H77.8589ZM93.7236 123.738C92.9303 123.738 92.2729 123.489 91.7516 122.99C91.2529 122.491 91.0036 121.891 91.0036 121.188C91.0036 120.463 91.2529 119.851 91.7516 119.352C92.2729 118.853 92.9303 118.604 93.7236 118.604C94.5169 118.604 95.1629 118.853 95.6616 119.352C96.1829 119.851 96.4436 120.463 96.4436 121.188C96.4436 121.891 96.1829 122.491 95.6616 122.99C95.1629 123.489 94.5169 123.738 93.7236 123.738ZM107.978 123.908C106.232 123.908 104.725 123.602 103.456 122.99C102.209 122.378 101.223 121.539 100.498 120.474C99.7949 119.386 99.3869 118.162 99.2736 116.802H103.524C103.728 117.777 104.226 118.593 105.02 119.25C105.813 119.885 106.799 120.202 107.978 120.202C109.247 120.202 110.278 119.737 111.072 118.808C111.888 117.879 112.296 116.723 112.296 115.34C112.296 113.912 111.888 112.779 111.072 111.94C110.278 111.101 109.27 110.682 108.046 110.682C107.026 110.682 106.142 110.931 105.394 111.43C104.646 111.929 104.113 112.552 103.796 113.3H99.6136L101.654 99.7H114.846V103.508H104.918L103.83 109.016C104.328 108.472 105.008 108.03 105.87 107.69C106.731 107.327 107.694 107.146 108.76 107.146C110.46 107.146 111.876 107.531 113.01 108.302C114.143 109.05 115.004 110.047 115.594 111.294C116.183 112.518 116.478 113.855 116.478 115.306C116.478 116.961 116.115 118.434 115.39 119.726C114.687 121.018 113.69 122.038 112.398 122.786C111.128 123.534 109.655 123.908 107.978 123.908ZM119.848 123.5V99.7H124.2V109.322L133.006 99.7H138.378L129.606 109.152L138.616 123.5H133.278L126.478 112.484L124.2 114.966V123.5H119.848Z" fill="#2B3674"/>
<path d="M141.629 142.551V141.267H143.885V139.191H145.193V141.267H147.437V142.551H145.193V144.627H143.885V142.551H141.629ZM148.489 145.383V144.267C149.001 143.843 149.497 143.423 149.977 143.007C150.465 142.591 150.897 142.179 151.273 141.771C151.657 141.363 151.961 140.967 152.185 140.583C152.417 140.191 152.533 139.811 152.533 139.443C152.533 139.099 152.437 138.795 152.245 138.531C152.061 138.267 151.753 138.135 151.321 138.135C150.881 138.135 150.549 138.279 150.325 138.567C150.101 138.855 149.989 139.203 149.989 139.611H148.501C148.517 138.995 148.653 138.483 148.909 138.075C149.165 137.659 149.505 137.351 149.929 137.151C150.353 136.943 150.829 136.839 151.357 136.839C152.213 136.839 152.877 137.075 153.349 137.547C153.829 138.011 154.069 138.615 154.069 139.359C154.069 139.823 153.961 140.275 153.745 140.715C153.537 141.155 153.261 141.579 152.917 141.987C152.573 142.395 152.201 142.779 151.801 143.139C151.401 143.491 151.013 143.819 150.637 144.123H154.273V145.383H148.489ZM155.933 145.467C155.653 145.467 155.421 145.379 155.237 145.203C155.061 145.027 154.973 144.815 154.973 144.567C154.973 144.311 155.061 144.095 155.237 143.919C155.421 143.743 155.653 143.655 155.933 143.655C156.213 143.655 156.441 143.743 156.617 143.919C156.801 144.095 156.893 144.311 156.893 144.567C156.893 144.815 156.801 145.027 156.617 145.203C156.441 145.379 156.213 145.467 155.933 145.467ZM161.792 145.383V143.823H157.652V142.599L161.588 136.983H163.328V142.491H164.432V143.823H163.328V145.383H161.792ZM159.296 142.491H161.888V138.675L159.296 142.491ZM168.411 145.527C167.795 145.527 167.263 145.419 166.815 145.203C166.375 144.987 166.027 144.691 165.771 144.315C165.523 143.931 165.379 143.499 165.339 143.019H166.839C166.911 143.363 167.087 143.651 167.367 143.883C167.647 144.107 167.995 144.219 168.411 144.219C168.859 144.219 169.223 144.055 169.503 143.727C169.791 143.399 169.935 142.991 169.935 142.503C169.935 141.999 169.791 141.599 169.503 141.303C169.223 141.007 168.867 140.859 168.435 140.859C168.075 140.859 167.763 140.947 167.499 141.123C167.235 141.299 167.047 141.519 166.935 141.783H165.459L166.179 136.983H170.835V138.327H167.331L166.947 140.271C167.123 140.079 167.363 139.923 167.667 139.803C167.971 139.675 168.311 139.611 168.687 139.611C169.287 139.611 169.787 139.747 170.187 140.019C170.587 140.283 170.891 140.635 171.099 141.075C171.307 141.507 171.411 141.979 171.411 142.491C171.411 143.075 171.283 143.595 171.027 144.051C170.779 144.507 170.427 144.867 169.971 145.131C169.523 145.395 169.003 145.527 168.411 145.527ZM174.329 141.111C173.945 141.111 173.597 141.027 173.285 140.859C172.973 140.683 172.725 140.435 172.541 140.115C172.357 139.795 172.265 139.415 172.265 138.975C172.265 138.535 172.357 138.155 172.541 137.835C172.725 137.515 172.973 137.271 173.285 137.103C173.597 136.927 173.949 136.839 174.341 136.839C174.725 136.839 175.069 136.927 175.373 137.103C175.685 137.271 175.933 137.515 176.117 137.835C176.301 138.155 176.393 138.535 176.393 138.975C176.393 139.415 176.301 139.795 176.117 140.115C175.933 140.435 175.685 140.683 175.373 140.859C175.061 141.027 174.713 141.111 174.329 141.111ZM173.873 145.383L178.613 136.983H180.113L175.373 145.383H173.873ZM174.329 140.043C174.561 140.043 174.761 139.955 174.929 139.779C175.097 139.595 175.181 139.327 175.181 138.975C175.181 138.623 175.097 138.355 174.929 138.171C174.769 137.987 174.569 137.895 174.329 137.895C174.089 137.895 173.885 137.987 173.717 138.171C173.557 138.355 173.477 138.623 173.477 138.975C173.477 139.327 173.557 139.595 173.717 139.779C173.885 139.955 174.089 140.043 174.329 140.043ZM179.705 145.527C179.321 145.527 178.973 145.443 178.661 145.275C178.349 145.099 178.101 144.851 177.917 144.531C177.733 144.211 177.641 143.831 177.641 143.391C177.641 142.951 177.733 142.575 177.917 142.263C178.101 141.943 178.349 141.699 178.661 141.531C178.973 141.355 179.325 141.267 179.717 141.267C180.101 141.267 180.445 141.355 180.749 141.531C181.061 141.699 181.309 141.943 181.493 142.263C181.677 142.575 181.769 142.951 181.769 143.391C181.769 143.831 181.677 144.211 181.493 144.531C181.309 144.851 181.061 145.099 180.749 145.275C180.445 145.443 180.097 145.527 179.705 145.527ZM179.705 144.459C179.945 144.459 180.145 144.371 180.305 144.195C180.473 144.011 180.557 143.743 180.557 143.391C180.557 143.039 180.473 142.771 180.305 142.587C180.145 142.403 179.945 142.311 179.705 142.311C179.465 142.311 179.261 142.403 179.093 142.587C178.933 142.771 178.853 143.039 178.853 143.391C178.853 143.743 178.933 144.011 179.093 144.195C179.261 144.371 179.465 144.459 179.705 144.459Z" fill="#05CD99"/>
<path d="M123.871 142.849L128.064 139.109L132.256 142.849H123.871Z" fill="#05CD99"/>
<path d="M64.0001 188.446C62.8801 188.446 61.8987 188.201 61.0561 187.71C60.2241 187.219 59.5681 186.542 59.0881 185.678C58.6187 184.803 58.3841 183.795 58.3841 182.654C58.3841 181.513 58.6187 180.51 59.0881 179.646C59.5681 178.771 60.2241 178.089 61.0561 177.598C61.8987 177.107 62.8801 176.862 64.0001 176.862C65.1094 176.862 66.0854 177.107 66.9281 177.598C67.7707 178.089 68.4267 178.771 68.8961 179.646C69.3654 180.51 69.6001 181.513 69.6001 182.654C69.6001 183.795 69.3654 184.803 68.8961 185.678C68.4267 186.542 67.7707 187.219 66.9281 187.71C66.0854 188.201 65.1094 188.446 64.0001 188.446ZM64.0001 186.606C65.0667 186.606 65.9147 186.254 66.5441 185.55C67.1841 184.846 67.5041 183.881 67.5041 182.654C67.5041 181.427 67.1841 180.462 66.5441 179.758C65.9147 179.054 65.0667 178.702 64.0001 178.702C62.9334 178.702 62.0801 179.054 61.4401 179.758C60.8001 180.462 60.4801 181.427 60.4801 182.654C60.4801 183.881 60.8001 184.846 61.4401 185.55C62.0801 186.254 62.9334 186.606 64.0001 186.606ZM71.0403 188.254V180.318H72.8483L73.0083 181.662C73.2536 181.193 73.6056 180.819 74.0643 180.542C74.5336 180.265 75.083 180.126 75.7123 180.126C76.6936 180.126 77.4563 180.435 78.0003 181.054C78.5443 181.673 78.8163 182.579 78.8163 183.774V188.254H76.7683V183.966C76.7683 183.283 76.6296 182.761 76.3523 182.398C76.075 182.035 75.643 181.854 75.0563 181.854C74.4803 181.854 74.0056 182.057 73.6323 182.462C73.2696 182.867 73.0883 183.433 73.0883 184.158V188.254H71.0403ZM87.4832 188.254C86.6512 188.254 85.9845 188.051 85.4832 187.646C84.9819 187.241 84.7312 186.521 84.7312 185.486V182.03H83.3712V180.318H84.7312L84.9712 178.19H86.7792V180.318H88.9232V182.03H86.7792V185.502C86.7792 185.886 86.8592 186.153 87.0192 186.302C87.1899 186.441 87.4779 186.51 87.8832 186.51H88.8752V188.254H87.4832ZM90.3616 188.254V180.318H92.1856L92.3776 181.806C92.6656 181.294 93.0549 180.889 93.5456 180.59C94.0469 180.281 94.6336 180.126 95.3056 180.126V182.286H94.7296C94.2816 182.286 93.8816 182.355 93.5296 182.494C93.1776 182.633 92.9002 182.873 92.6976 183.214C92.5056 183.555 92.4096 184.03 92.4096 184.638V188.254H90.3616ZM99.1213 188.446C98.4386 188.446 97.8786 188.339 97.4413 188.126C97.004 187.902 96.6786 187.609 96.4653 187.246C96.252 186.883 96.1453 186.483 96.1453 186.046C96.1453 185.31 96.4333 184.713 97.0093 184.254C97.5853 183.795 98.4493 183.566 99.6013 183.566H101.617V183.374C101.617 182.83 101.463 182.43 101.153 182.174C100.844 181.918 100.46 181.79 100.001 181.79C99.5853 181.79 99.2226 181.891 98.9133 182.094C98.604 182.286 98.412 182.574 98.3373 182.958H96.3373C96.3906 182.382 96.5826 181.881 96.9133 181.454C97.2546 181.027 97.692 180.702 98.2253 180.478C98.7586 180.243 99.356 180.126 100.017 180.126C101.148 180.126 102.039 180.409 102.689 180.974C103.34 181.539 103.665 182.339 103.665 183.374V188.254H101.921L101.729 186.974C101.495 187.401 101.164 187.753 100.737 188.03C100.321 188.307 99.7826 188.446 99.1213 188.446ZM99.5853 186.846C100.172 186.846 100.625 186.654 100.945 186.27C101.276 185.886 101.484 185.411 101.569 184.846H99.8253C99.2813 184.846 98.892 184.947 98.6573 185.15C98.4226 185.342 98.3053 185.582 98.3053 185.87C98.3053 186.179 98.4226 186.419 98.6573 186.59C98.892 186.761 99.2013 186.846 99.5853 186.846ZM109.188 188.446C108.377 188.446 107.662 188.27 107.044 187.918C106.425 187.566 105.934 187.075 105.572 186.446C105.22 185.817 105.044 185.097 105.044 184.286C105.044 183.475 105.22 182.755 105.572 182.126C105.934 181.497 106.425 181.006 107.044 180.654C107.662 180.302 108.377 180.126 109.188 180.126C110.201 180.126 111.054 180.393 111.748 180.926C112.441 181.449 112.884 182.174 113.076 183.102H110.916C110.809 182.718 110.596 182.419 110.276 182.206C109.966 181.982 109.598 181.87 109.172 181.87C108.606 181.87 108.126 182.083 107.732 182.51C107.337 182.937 107.14 183.529 107.14 184.286C107.14 185.043 107.337 185.635 107.732 186.062C108.126 186.489 108.606 186.702 109.172 186.702C109.598 186.702 109.966 186.595 110.276 186.382C110.596 186.169 110.809 185.865 110.916 185.47H113.076C112.884 186.366 112.441 187.086 111.748 187.63C111.054 188.174 110.201 188.446 109.188 188.446ZM114.573 188.254V176.734H116.621V183.534L119.437 180.318H121.869L118.621 183.934L122.397 188.254H119.837L116.621 184.27V188.254H114.573Z" fill="#05CD99"/>
<rect x="35.3047" y="175.258" width="16" height="16" rx="8" fill="#05CD99"/>
<g clip-path="url(#clip2_1462_3002)">
<path d="M42.126 185.007L40.5218 183.403C40.3431 183.225 40.0589 183.225 39.8802 183.403C39.7014 183.582 39.7014 183.866 39.8802 184.045L41.8006 185.965C41.9793 186.144 42.2681 186.144 42.4468 185.965L47.3052 181.112C47.4839 180.933 47.4839 180.649 47.3052 180.47C47.1264 180.291 46.8422 180.291 46.6635 180.47L42.126 185.007Z" fill="white"/>
</g>
<rect x="35" y="26.5" width="123" height="37" rx="7" fill="#F4F7FE"/>
<g clip-path="url(#clip3_1462_3002)">
<path d="M62 38.75H61.25V38C61.25 37.5875 60.9125 37.25 60.5 37.25C60.0875 37.25 59.75 37.5875 59.75 38V38.75H52.25V38C52.25 37.5875 51.9125 37.25 51.5 37.25C51.0875 37.25 50.75 37.5875 50.75 38V38.75H50C49.175 38.75 48.5 39.425 48.5 40.25V52.25C48.5 53.075 49.175 53.75 50 53.75H62C62.825 53.75 63.5 53.075 63.5 52.25V40.25C63.5 39.425 62.825 38.75 62 38.75ZM61.25 52.25H50.75C50.3375 52.25 50 51.9125 50 51.5V42.5H62V51.5C62 51.9125 61.6625 52.25 61.25 52.25Z" fill="#A3AED0"/>
</g>
<path d="M74.29 50.5V41.904H71.392V40.7H78.658V41.904H75.774V50.5H74.29ZM79.7107 50.5V40.42H81.1947V44.676C81.4281 44.2747 81.7501 43.962 82.1607 43.738C82.5807 43.5047 83.0427 43.388 83.5467 43.388C84.3774 43.388 85.0307 43.6493 85.5067 44.172C85.9827 44.6947 86.2207 45.474 86.2207 46.51V50.5H84.7507V46.664C84.7507 45.32 84.2141 44.648 83.1407 44.648C82.5807 44.648 82.1141 44.844 81.7407 45.236C81.3767 45.628 81.1947 46.188 81.1947 46.916V50.5H79.7107ZM88.5285 42.24C88.2485 42.24 88.0152 42.156 87.8285 41.988C87.6512 41.8107 87.5625 41.5913 87.5625 41.33C87.5625 41.0687 87.6512 40.854 87.8285 40.686C88.0152 40.5087 88.2485 40.42 88.5285 40.42C88.8085 40.42 89.0372 40.5087 89.2145 40.686C89.4012 40.854 89.4945 41.0687 89.4945 41.33C89.4945 41.5913 89.4012 41.8107 89.2145 41.988C89.0372 42.156 88.8085 42.24 88.5285 42.24ZM87.7865 50.5V43.556H89.2705V50.5H87.7865ZM93.7216 50.668C92.8442 50.668 92.1209 50.4533 91.5516 50.024C90.9822 49.5947 90.6556 49.0253 90.5716 48.316H92.0696C92.1442 48.6333 92.3216 48.9087 92.6016 49.142C92.8816 49.366 93.2502 49.478 93.7076 49.478C94.1556 49.478 94.4822 49.3847 94.6876 49.198C94.8929 49.0113 94.9956 48.7967 94.9956 48.554C94.9956 48.1993 94.8509 47.9613 94.5616 47.84C94.2816 47.7093 93.8896 47.5927 93.3856 47.49C92.9936 47.406 92.6016 47.294 92.2096 47.154C91.8269 47.014 91.5049 46.818 91.2436 46.566C90.9916 46.3047 90.8656 45.9547 90.8656 45.516C90.8656 44.9093 91.0989 44.4053 91.5656 44.004C92.0322 43.5933 92.6856 43.388 93.5256 43.388C94.3002 43.388 94.9256 43.5747 95.4016 43.948C95.8869 44.3213 96.1716 44.8487 96.2556 45.53H94.8276C94.7809 45.2313 94.6409 44.998 94.4076 44.83C94.1836 44.662 93.8802 44.578 93.4976 44.578C93.1242 44.578 92.8349 44.6573 92.6296 44.816C92.4242 44.9653 92.3216 45.1613 92.3216 45.404C92.3216 45.6467 92.4616 45.838 92.7416 45.978C93.0309 46.118 93.4089 46.244 93.8756 46.356C94.3422 46.4587 94.7716 46.58 95.1636 46.72C95.5649 46.8507 95.8869 47.0467 96.1296 47.308C96.3722 47.5693 96.4936 47.952 96.4936 48.456C96.5029 49.0907 96.2556 49.618 95.7516 50.038C95.2569 50.458 94.5802 50.668 93.7216 50.668ZM101.081 50.5V43.556H102.397L102.523 44.536C102.747 44.1813 103.041 43.9013 103.405 43.696C103.778 43.4907 104.208 43.388 104.693 43.388C105.794 43.388 106.56 43.822 106.989 44.69C107.241 44.2887 107.577 43.9713 107.997 43.738C108.426 43.5047 108.888 43.388 109.383 43.388C110.251 43.388 110.932 43.6493 111.427 44.172C111.922 44.6947 112.169 45.474 112.169 46.51V50.5H110.685V46.664C110.685 45.32 110.172 44.648 109.145 44.648C108.622 44.648 108.193 44.844 107.857 45.236C107.53 45.628 107.367 46.188 107.367 46.916V50.5H105.883V46.664C105.883 45.32 105.365 44.648 104.329 44.648C103.816 44.648 103.391 44.844 103.055 45.236C102.728 45.628 102.565 46.188 102.565 46.916V50.5H101.081ZM116.873 50.668C116.211 50.668 115.613 50.5187 115.081 50.22C114.559 49.912 114.143 49.4873 113.835 48.946C113.527 48.3953 113.373 47.756 113.373 47.028C113.373 46.3 113.527 45.6653 113.835 45.124C114.153 44.5733 114.577 44.1487 115.109 43.85C115.641 43.542 116.234 43.388 116.887 43.388C117.55 43.388 118.143 43.542 118.665 43.85C119.197 44.1487 119.617 44.5733 119.925 45.124C120.243 45.6653 120.401 46.3 120.401 47.028C120.401 47.756 120.243 48.3953 119.925 48.946C119.617 49.4873 119.197 49.912 118.665 50.22C118.133 50.5187 117.536 50.668 116.873 50.668ZM116.873 49.394C117.228 49.394 117.555 49.3053 117.853 49.128C118.161 48.9507 118.409 48.6893 118.595 48.344C118.782 47.9893 118.875 47.5507 118.875 47.028C118.875 46.5053 118.782 46.0713 118.595 45.726C118.418 45.3713 118.175 45.1053 117.867 44.928C117.569 44.7507 117.242 44.662 116.887 44.662C116.533 44.662 116.201 44.7507 115.893 44.928C115.595 45.1053 115.352 45.3713 115.165 45.726C114.979 46.0713 114.885 46.5053 114.885 47.028C114.885 47.5507 114.979 47.9893 115.165 48.344C115.352 48.6893 115.595 48.9507 115.893 49.128C116.192 49.3053 116.519 49.394 116.873 49.394ZM121.726 50.5V43.556H123.042L123.154 44.774C123.369 44.3447 123.681 44.0087 124.092 43.766C124.512 43.514 124.993 43.388 125.534 43.388C126.374 43.388 127.032 43.6493 127.508 44.172C127.993 44.6947 128.236 45.474 128.236 46.51V50.5H126.766V46.664C126.766 45.32 126.215 44.648 125.114 44.648C124.563 44.648 124.106 44.844 123.742 45.236C123.387 45.628 123.21 46.188 123.21 46.916V50.5H121.726ZM132.616 50.5C131.935 50.5 131.393 50.3367 130.992 50.01C130.591 49.674 130.39 49.0813 130.39 48.232V44.802H129.2V43.556H130.39L130.572 41.792H131.874V43.556H133.834V44.802H131.874V48.232C131.874 48.6147 131.953 48.8807 132.112 49.03C132.28 49.17 132.565 49.24 132.966 49.24H133.764V50.5H132.616ZM135.084 50.5V40.42H136.568V44.676C136.801 44.2747 137.123 43.962 137.534 43.738C137.954 43.5047 138.416 43.388 138.92 43.388C139.751 43.388 140.404 43.6493 140.88 44.172C141.356 44.6947 141.594 45.474 141.594 46.51V50.5H140.124V46.664C140.124 45.32 139.587 44.648 138.514 44.648C137.954 44.648 137.487 44.844 137.114 45.236C136.75 45.628 136.568 46.188 136.568 46.916V50.5H135.084Z" fill="#A3AED0"/>
</g>
</g>
<defs>
<filter id="filter0_d_1462_3002" x="0" y="0.5" width="782" height="353" filterUnits="userSpaceOnUse" color-interpolation-filters="sRGB">
<feFlood flood-opacity="0" result="BackgroundImageFix"/>
<feColorMatrix in="SourceAlpha" type="matrix" values="0 0 0 0 0 0 0 0 0 0 0 0 0 0 0 0 0 0 127 0" result="hardAlpha"/>
<feOffset dy="4"/>
<feGaussianBlur stdDeviation="2"/>
<feComposite in2="hardAlpha" operator="out"/>
<feColorMatrix type="matrix" values="0 0 0 0 0 0 0 0 0 0 0 0 0 0 0 0 0 0 0.25 0"/>
<feBlend mode="normal" in2="BackgroundImageFix" result="effect1_dropShadow_1462_3002"/>
<feBlend mode="normal" in="SourceGraphic" in2="effect1_dropShadow_1462_3002" result="shape"/>
</filter>
<filter id="filter1_d_1462_3002" x="194.926" y="130.5" width="553.398" height="115" filterUnits="userSpaceOnUse" color-interpolation-filters="sRGB">
<feFlood flood-opacity="0" result="BackgroundImageFix"/>
<feColorMatrix in="SourceAlpha" type="matrix" values="0 0 0 0 0 0 0 0 0 0 0 0 0 0 0 0 0 0 127 0" result="hardAlpha"/>
<feOffset dy="13"/>
<feGaussianBlur stdDeviation="10.5"/>
<feColorMatrix type="matrix" values="0 0 0 0 0.262745 0 0 0 0 0.0941176 0 0 0 0 1 0 0 0 0.25 0"/>
<feBlend mode="normal" in2="BackgroundImageFix" result="effect1_dropShadow_1462_3002"/>
<feBlend mode="normal" in="SourceGraphic" in2="effect1_dropShadow_1462_3002" result="shape"/>
</filter>
<clipPath id="clip0_1462_3002">
<rect x="4" y="0.5" width="774" height="345" rx="20" fill="white"/>
</clipPath>
<clipPath id="clip1_1462_3002">
<rect width="24" height="24" fill="white" transform="translate(718 33.5)"/>
</clipPath>
<clipPath id="clip2_1462_3002">
<rect width="11" height="11" fill="white" transform="translate(38 177.582)"/>
</clipPath>
<clipPath id="clip3_1462_3002">
<rect width="18" height="18" fill="white" transform="translate(47 36.5)"/>
</clipPath>
</defs>
</svg>
