<svg width="32" height="32" viewBox="0 0 32 32" fill="none" xmlns="http://www.w3.org/2000/svg">
<path d="M15.9998 30.3333C8.09317 30.3333 1.6665 23.9067 1.6665 16C1.6665 8.09332 8.09317 1.66666 15.9998 1.66666C23.9065 1.66666 30.3332 8.09332 30.3332 16C30.3332 23.9067 23.9065 30.3333 15.9998 30.3333ZM15.9998 3.66666C9.19984 3.66666 3.6665 9.19999 3.6665 16C3.6665 22.8 9.19984 28.3333 15.9998 28.3333C22.7998 28.3333 28.3332 22.8 28.3332 16C28.3332 9.19999 22.7998 3.66666 15.9998 3.66666Z" fill="#292D32"/>
<path d="M20.6665 17H12.6665C12.1198 17 11.6665 16.5467 11.6665 16C11.6665 15.4533 12.1198 15 12.6665 15H20.6665C21.2132 15 21.6665 15.4533 21.6665 16C21.6665 16.5467 21.2132 17 20.6665 17Z" fill="#292D32"/>
<path d="M15.3331 21C15.0798 21 14.8264 20.9067 14.6264 20.7067L10.6264 16.7067C10.2398 16.32 10.2398 15.68 10.6264 15.2933L14.6264 11.2933C15.0131 10.9067 15.6531 10.9067 16.0398 11.2933C16.4264 11.68 16.4264 12.32 16.0398 12.7067L12.7464 16L16.0398 19.2933C16.4264 19.68 16.4264 20.32 16.0398 20.7067C15.8398 20.9067 15.5864 21 15.3331 21Z" fill="#292D32"/>
</svg>
