<svg width="25" height="24" viewBox="0 0 25 24" fill="none" xmlns="http://www.w3.org/2000/svg">
<path d="M24.9988 12.2658C24.9988 11.2792 24.9137 10.5592 24.7295 9.8125H12.7539V14.2658H19.7833C19.6417 15.3725 18.8764 17.0392 17.1756 18.1591L17.1518 18.3082L20.9383 21.0679L21.2006 21.0925C23.6099 18.9992 24.9988 15.9192 24.9988 12.2658Z" fill="#4285F4"/>
<path d="M12.754 24.0017C16.1978 24.0017 19.0889 22.935 21.2007 21.095L17.1757 18.1616C16.0986 18.8683 14.653 19.3616 12.754 19.3616C9.38097 19.3616 6.51818 17.2683 5.49767 14.375L5.34809 14.3869L1.41086 17.2536L1.35938 17.3883C3.45686 21.3083 7.76526 24.0017 12.754 24.0017Z" fill="#34A853"/>
<path d="M5.49881 14.3732C5.22954 13.6265 5.0737 12.8264 5.0737 11.9998C5.0737 11.1731 5.22954 10.3731 5.48464 9.62644L5.47751 9.46742L1.49094 6.55469L1.36051 6.61306C0.496037 8.23975 0 10.0665 0 11.9998C0 13.9331 0.496037 15.7598 1.36051 17.3864L5.49881 14.3732Z" fill="#FBBC05"/>
<path d="M12.754 4.63999C15.149 4.63999 16.7647 5.61332 17.6859 6.42672L21.2857 3.12001C19.0748 1.18668 16.1978 0 12.754 0C7.76526 0 3.45686 2.69332 1.35938 6.61331L5.48351 9.6267C6.51818 6.73336 9.38097 4.63999 12.754 4.63999Z" fill="#EB4335"/>
</svg>
