<svg width="15" height="15" viewBox="0 0 15 15" fill="none" xmlns="http://www.w3.org/2000/svg">
<path fill-rule="evenodd" clip-rule="evenodd" d="M6 1.36364C5.8011 1.36364 5.61034 1.43547 5.46968 1.56333C5.32903 1.6912 5.25002 1.86462 5.25002 2.04545V2.72726H9.75V2.04545C9.75 1.86462 9.67103 1.6912 9.53032 1.56333C9.3897 1.43547 9.1989 1.36364 9 1.36364H6ZM11.25 2.72726V2.04545C11.25 1.50297 11.0129 0.982698 10.591 0.5991C10.169 0.215502 9.59678 0 9 0H6C5.40328 0 4.83098 0.215502 4.40902 0.5991C3.98707 0.982698 3.75002 1.50297 3.75002 2.04545V2.72727L0.75 2.72726C0.33579 2.72726 0 3.03252 0 3.40908C0 3.78564 0.33579 4.0909 0.75 4.0909H1.5L1.50002 12.9545C1.50002 13.497 1.73707 14.0173 2.15902 14.4009C2.58097 14.7845 3.15328 15 3.75002 15H11.25C11.8468 15 12.419 14.7845 12.841 14.4009C13.2629 14.0173 13.5 13.4971 13.5 12.9545V4.0909H14.25C14.6642 4.0909 15 3.78564 15 3.40908C15 3.03252 14.6642 2.72726 14.25 2.72726H11.25ZM4.50389 4.0909C4.5026 4.09091 4.50131 4.09091 4.50002 4.09091C4.49872 4.09091 4.49742 4.09091 4.49613 4.0909L3 4.0909L3.00002 12.9545C3.00002 13.1354 3.07903 13.3088 3.21968 13.4367C3.36033 13.5645 3.5511 13.6364 3.75002 13.6364H11.25C11.4489 13.6364 11.6397 13.5645 11.7803 13.4367C11.921 13.3088 12 13.1354 12 12.9545V4.09091H10.502C10.5014 4.09091 10.5007 4.09091 10.5 4.09091C10.4993 4.09091 10.4987 4.09091 10.498 4.09091L4.50389 4.0909Z" fill="#2F363D"/>
</svg>
