<svg width="15" height="15" viewBox="0 0 15 15" fill="none" xmlns="http://www.w3.org/2000/svg">
<path fill-rule="evenodd" clip-rule="evenodd" d="M9 1.23077C8.83271 1.23077 8.67229 1.30347 8.55399 1.43288L1.63293 9.00462L1.3356 10.3058L2.52493 9.9805L9.44601 2.40875C9.50456 2.34467 9.55102 2.2686 9.58275 2.18488C9.61442 2.10116 9.63073 2.01143 9.63073 1.92081C9.63073 1.83019 9.61442 1.74046 9.58275 1.65674C9.55102 1.57302 9.50456 1.49695 9.44601 1.43288C9.38745 1.3688 9.31792 1.31797 9.24137 1.2833C9.16487 1.24862 9.08286 1.23077 9 1.23077ZM7.75851 0.562596C8.08779 0.202369 8.53436 0 9 0C9.23057 0 9.45889 0.0496861 9.67191 0.146215C9.88492 0.242744 10.0785 0.384227 10.2415 0.562596C10.4046 0.740959 10.5339 0.952706 10.6221 1.18575C10.7103 1.41879 10.7557 1.66856 10.7557 1.92081C10.7557 2.17305 10.7103 2.42283 10.6221 2.65587C10.5339 2.88892 10.4046 3.10067 10.2415 3.27903L3.21026 10.9713C3.13817 11.0502 3.04784 11.1062 2.94894 11.1332L0.698941 11.7486C0.507252 11.801 0.304477 11.7396 0.164763 11.5867C0.0250493 11.4339 -0.0311163 11.212 0.0168086 11.0023L0.579309 8.54075C0.604036 8.43256 0.655179 8.33373 0.727263 8.2549L7.75851 0.562596ZM5.0625 11.1516C5.0625 10.8117 5.31433 10.5362 5.625 10.5362H10.6875C10.9982 10.5362 11.25 10.8117 11.25 11.1516C11.25 11.4915 10.9982 11.767 10.6875 11.767H5.625C5.31433 11.767 5.0625 11.4915 5.0625 11.1516Z" fill="#2F363D"/>
</svg>
