<svg width="20" height="20" viewBox="0 0 20 20" fill="none" xmlns="http://www.w3.org/2000/svg">
<path d="M7.82369 12.295H7.32369V12.795V18.7992C7.32369 19.2315 7.01271 19.5 6.73674 19.5H3.4759C3.19993 19.5 2.88895 19.2315 2.88895 18.7992V10.3933V9.89328H2.38895H0.541139C0.538379 9.89328 0.538005 9.89338 0.53791 9.89326C0.537844 9.89318 0.537911 9.89299 0.537417 9.89258C0.532456 9.88856 0.519016 9.87428 0.509176 9.84529C0.487336 9.78095 0.506402 9.73101 0.531461 9.70658L0.53148 9.7066L0.53513 9.70297L9.62083 0.661808C9.621 0.661641 9.62117 0.661474 9.62134 0.661307C9.83941 0.446231 10.1558 0.446231 10.3738 0.661307C10.374 0.661474 10.3742 0.661641 10.3743 0.661808L19.46 9.70297L19.4599 9.70307L19.4689 9.7116C19.485 9.72677 19.4934 9.74307 19.4974 9.76306C19.5021 9.78591 19.5007 9.8146 19.491 9.84263C19.4812 9.87097 19.4675 9.88601 19.4612 9.89107C19.4599 9.89206 19.4594 9.89261 19.4587 9.89291C19.4578 9.89329 19.4568 9.89328 19.454 9.89328H17.6062H17.1062V10.3933V18.7992C17.1062 19.2315 16.7952 19.5 16.5193 19.5H13.2584C12.9825 19.5 12.6715 19.2315 12.6715 18.7992V12.795V12.295H12.1715H7.82369Z" stroke="black"/>
</svg>
