<svg width="22" height="22" viewBox="0 0 22 22" fill="none" xmlns="http://www.w3.org/2000/svg">
<path d="M5.44444 6H8.77778M8.5 1H13.5C17.0355 1 18.8033 1 19.9017 2.25526C21 3.51051 21 5.53082 21 9.57143V12.4286C21 16.4692 21 18.4895 19.9017 19.7447C18.8033 21 17.0355 21 13.5 21H8.5C4.96447 21 3.1967 21 2.09835 19.7447C1 18.4895 1 16.4692 1 12.4286V9.57143C1 5.53082 1 3.51051 2.09835 2.25526C3.1967 1 4.96447 1 8.5 1ZM16.5556 16H18.7778C19.8253 16 20.3491 16 20.6746 15.6339C21 15.2678 21 14.6785 21 13.5C21 12.3215 21 11.7322 20.6746 11.3661C20.3491 11 19.8253 11 18.7778 11H16.5556C15.508 11 14.9842 11 14.6588 11.3661C14.3333 11.7322 14.3333 12.3215 14.3333 13.5C14.3333 14.6785 14.3333 15.2678 14.6588 15.6339C14.9842 16 15.508 16 16.5556 16Z" stroke="black" stroke-linecap="round"/>
</svg>
