<svg width="21" height="26" viewBox="0 0 21 26" fill="none" xmlns="http://www.w3.org/2000/svg">
<path d="M17.5386 13.7817C17.5748 17.565 20.9625 18.824 21 18.8401C20.9714 18.9288 20.4587 20.6342 19.2152 22.3958C18.1403 23.9187 17.0246 25.4361 15.2671 25.4675C13.5402 25.4983 12.985 24.4748 11.0106 24.4748C9.03688 24.4748 8.41992 25.4361 6.78522 25.4984C5.08881 25.5606 3.79701 23.8515 2.71314 22.3341C0.498364 19.2303 -1.19418 13.5635 1.07848 9.73826C2.20749 7.83865 4.22511 6.63573 6.41506 6.60489C8.08089 6.57408 9.65324 7.69125 10.6716 7.69125C11.6893 7.69125 13.6 6.34776 15.6087 6.54507C16.4496 6.579 18.8101 6.87433 20.3258 9.02491C20.2036 9.0983 17.5093 10.6187 17.5386 13.7817V13.7817ZM14.2931 4.49162C15.1937 3.43486 15.7999 1.96375 15.6345 0.5C14.3363 0.550576 12.7665 1.33856 11.8353 2.39475C11.0008 3.33005 10.27 4.82705 10.4672 6.26183C11.9142 6.37035 13.3924 5.54906 14.2931 4.49163" fill="black"/>
</svg>
