<svg width="711" height="297" viewBox="0 0 711 297" fill="none" xmlns="http://www.w3.org/2000/svg">
<path d="M45.596 256.644C44.764 256.644 44.044 256.464 43.436 256.104C42.836 255.736 42.372 255.228 42.044 254.58C41.716 253.924 41.552 253.168 41.552 252.312C41.552 251.448 41.716 250.692 42.044 250.044C42.372 249.388 42.836 248.876 43.436 248.508C44.044 248.14 44.764 247.956 45.596 247.956C46.58 247.956 47.384 248.196 48.008 248.676C48.632 249.156 49.028 249.828 49.196 250.692H47.78C47.668 250.204 47.428 249.816 47.06 249.528C46.692 249.24 46.2 249.096 45.584 249.096C44.744 249.096 44.08 249.384 43.592 249.96C43.104 250.528 42.86 251.312 42.86 252.312C42.86 253.304 43.104 254.084 43.592 254.652C44.08 255.22 44.744 255.504 45.584 255.504C46.2 255.504 46.692 255.368 47.06 255.096C47.428 254.824 47.668 254.452 47.78 253.98H49.196C49.028 254.812 48.632 255.464 48.008 255.936C47.384 256.408 46.58 256.644 45.596 256.644ZM53.0902 256.644C52.5222 256.644 52.0102 256.516 51.5542 256.26C51.1062 255.996 50.7502 255.632 50.4862 255.168C50.2222 254.696 50.0902 254.148 50.0902 253.524C50.0902 252.9 50.2222 252.356 50.4862 251.892C50.7582 251.42 51.1222 251.056 51.5782 250.8C52.0342 250.536 52.5422 250.404 53.1022 250.404C53.6702 250.404 54.1782 250.536 54.6262 250.8C55.0822 251.056 55.4422 251.42 55.7062 251.892C55.9782 252.356 56.1142 252.9 56.1142 253.524C56.1142 254.148 55.9782 254.696 55.7062 255.168C55.4422 255.632 55.0822 255.996 54.6262 256.26C54.1702 256.516 53.6582 256.644 53.0902 256.644ZM53.0902 255.552C53.3942 255.552 53.6742 255.476 53.9302 255.324C54.1942 255.172 54.4062 254.948 54.5662 254.652C54.7262 254.348 54.8062 253.972 54.8062 253.524C54.8062 253.076 54.7262 252.704 54.5662 252.408C54.4142 252.104 54.2062 251.876 53.9422 251.724C53.6862 251.572 53.4062 251.496 53.1022 251.496C52.7982 251.496 52.5142 251.572 52.2502 251.724C51.9942 251.876 51.7862 252.104 51.6262 252.408C51.4662 252.704 51.3862 253.076 51.3862 253.524C51.3862 253.972 51.4662 254.348 51.6262 254.652C51.7862 254.948 51.9942 255.172 52.2502 255.324C52.5062 255.476 52.7862 255.552 53.0902 255.552ZM57.2498 256.5V250.548H58.3778L58.4738 251.592C58.6578 251.224 58.9258 250.936 59.2778 250.728C59.6378 250.512 60.0498 250.404 60.5138 250.404C61.2338 250.404 61.7978 250.628 62.2058 251.076C62.6218 251.524 62.8298 252.192 62.8298 253.08V256.5H61.5698V253.212C61.5698 252.06 61.0978 251.484 60.1538 251.484C59.6818 251.484 59.2898 251.652 58.9778 251.988C58.6738 252.324 58.5218 252.804 58.5218 253.428V256.5H57.2498ZM66.9079 256.644C66.3239 256.644 65.7999 256.512 65.3359 256.248C64.8799 255.984 64.5199 255.62 64.2559 255.156C63.9999 254.684 63.8719 254.14 63.8719 253.524C63.8719 252.908 63.9999 252.368 64.2559 251.904C64.5199 251.432 64.8799 251.064 65.3359 250.8C65.7999 250.536 66.3239 250.404 66.9079 250.404C67.6439 250.404 68.2599 250.596 68.7559 250.98C69.2599 251.364 69.5839 251.884 69.7279 252.54H68.3959C68.3159 252.212 68.1399 251.956 67.8679 251.772C67.5959 251.588 67.2759 251.496 66.9079 251.496C66.5959 251.496 66.3079 251.576 66.0439 251.736C65.7799 251.888 65.5679 252.116 65.4079 252.42C65.2479 252.716 65.1679 253.084 65.1679 253.524C65.1679 253.964 65.2479 254.336 65.4079 254.64C65.5679 254.936 65.7799 255.164 66.0439 255.324C66.3079 255.484 66.5959 255.564 66.9079 255.564C67.2759 255.564 67.5959 255.472 67.8679 255.288C68.1399 255.104 68.3159 254.844 68.3959 254.508H69.7279C69.5919 255.148 69.2719 255.664 68.7679 256.056C68.2639 256.448 67.6439 256.644 66.9079 256.644ZM70.8674 256.5V247.86H72.1394V256.5H70.8674ZM75.7062 256.644C74.9862 256.644 74.4182 256.42 74.0022 255.972C73.5942 255.524 73.3902 254.856 73.3902 253.968V250.548H74.6622V253.836C74.6622 254.988 75.1342 255.564 76.0782 255.564C76.5502 255.564 76.9382 255.396 77.2422 255.06C77.5462 254.724 77.6982 254.244 77.6982 253.62V250.548H78.9702V256.5H77.8422L77.7462 255.456C77.5622 255.824 77.2902 256.116 76.9302 256.332C76.5782 256.54 76.1702 256.644 75.7062 256.644ZM81.0684 249.42C80.8284 249.42 80.6284 249.348 80.4684 249.204C80.3164 249.052 80.2404 248.864 80.2404 248.64C80.2404 248.416 80.3164 248.232 80.4684 248.088C80.6284 247.936 80.8284 247.86 81.0684 247.86C81.3084 247.86 81.5044 247.936 81.6564 248.088C81.8164 248.232 81.8964 248.416 81.8964 248.64C81.8964 248.864 81.8164 249.052 81.6564 249.204C81.5044 249.348 81.3084 249.42 81.0684 249.42ZM80.4324 256.5V250.548H81.7044V256.5H80.4324ZM85.8555 256.644C85.2795 256.644 84.7715 256.508 84.3315 256.236C83.8915 255.964 83.5475 255.592 83.2995 255.12C83.0515 254.648 82.9275 254.112 82.9275 253.512C82.9275 252.912 83.0515 252.38 83.2995 251.916C83.5475 251.444 83.8915 251.076 84.3315 250.812C84.7795 250.54 85.2915 250.404 85.8675 250.404C86.3395 250.404 86.7515 250.496 87.1035 250.68C87.4635 250.864 87.7435 251.124 87.9435 251.46V247.86H89.2155V256.5H88.0755L87.9435 255.576C87.7515 255.856 87.4875 256.104 87.1515 256.32C86.8155 256.536 86.3835 256.644 85.8555 256.644ZM86.0835 255.54C86.6275 255.54 87.0715 255.352 87.4155 254.976C87.7675 254.6 87.9435 254.116 87.9435 253.524C87.9435 252.924 87.7675 252.44 87.4155 252.072C87.0715 251.696 86.6275 251.508 86.0835 251.508C85.5395 251.508 85.0915 251.696 84.7395 252.072C84.3875 252.44 84.2115 252.924 84.2115 253.524C84.2115 253.916 84.2915 254.264 84.4515 254.568C84.6115 254.872 84.8315 255.112 85.1115 255.288C85.3995 255.456 85.7235 255.54 86.0835 255.54ZM93.3633 256.644C92.7953 256.644 92.2833 256.516 91.8273 256.26C91.3793 255.996 91.0233 255.632 90.7593 255.168C90.4953 254.696 90.3633 254.148 90.3633 253.524C90.3633 252.9 90.4953 252.356 90.7593 251.892C91.0313 251.42 91.3953 251.056 91.8513 250.8C92.3073 250.536 92.8153 250.404 93.3753 250.404C93.9433 250.404 94.4513 250.536 94.8993 250.8C95.3553 251.056 95.7153 251.42 95.9793 251.892C96.2513 252.356 96.3873 252.9 96.3873 253.524C96.3873 254.148 96.2513 254.696 95.9793 255.168C95.7153 255.632 95.3553 255.996 94.8993 256.26C94.4433 256.516 93.9313 256.644 93.3633 256.644ZM93.3633 255.552C93.6673 255.552 93.9473 255.476 94.2033 255.324C94.4673 255.172 94.6793 254.948 94.8393 254.652C94.9993 254.348 95.0793 253.972 95.0793 253.524C95.0793 253.076 94.9993 252.704 94.8393 252.408C94.6873 252.104 94.4793 251.876 94.2153 251.724C93.9593 251.572 93.6793 251.496 93.3753 251.496C93.0713 251.496 92.7873 251.572 92.5233 251.724C92.2673 251.876 92.0593 252.104 91.8993 252.408C91.7393 252.704 91.6593 253.076 91.6593 253.524C91.6593 253.972 91.7393 254.348 91.8993 254.652C92.0593 254.948 92.2673 255.172 92.5233 255.324C92.7793 255.476 93.0593 255.552 93.3633 255.552Z" fill="#A3AED0"/>
<path d="M46.958 276.716C46.01 276.716 45.212 276.542 44.564 276.194C43.916 275.846 43.394 275.378 42.998 274.79C42.602 274.202 42.314 273.548 42.134 272.828C41.966 272.108 41.882 271.37 41.882 270.614C41.882 269.21 42.08 267.992 42.476 266.96C42.872 265.916 43.442 265.112 44.186 264.548C44.93 263.972 45.83 263.684 46.886 263.684C47.75 263.684 48.482 263.858 49.082 264.206C49.694 264.542 50.168 264.986 50.504 265.538C50.84 266.09 51.038 266.684 51.098 267.32H48.956C48.848 266.768 48.614 266.342 48.254 266.042C47.894 265.742 47.432 265.592 46.868 265.592C46.064 265.592 45.416 265.964 44.924 266.708C44.432 267.44 44.168 268.562 44.132 270.074C44.42 269.582 44.852 269.174 45.428 268.85C46.004 268.526 46.646 268.364 47.354 268.364C48.05 268.364 48.704 268.532 49.316 268.868C49.928 269.204 50.42 269.678 50.792 270.29C51.176 270.902 51.368 271.622 51.368 272.45C51.368 273.206 51.182 273.908 50.81 274.556C50.45 275.204 49.934 275.726 49.262 276.122C48.602 276.518 47.834 276.716 46.958 276.716ZM46.832 274.736C47.504 274.736 48.056 274.532 48.488 274.124C48.932 273.704 49.154 273.176 49.154 272.54C49.154 271.868 48.932 271.328 48.488 270.92C48.044 270.512 47.48 270.308 46.796 270.308C46.352 270.308 45.95 270.41 45.59 270.614C45.242 270.806 44.966 271.07 44.762 271.406C44.558 271.73 44.456 272.096 44.456 272.504C44.456 273.152 44.678 273.686 45.122 274.106C45.578 274.526 46.148 274.736 46.832 274.736ZM57.3942 276.716C56.5662 276.716 55.8162 276.572 55.1442 276.284C54.4722 275.984 53.9322 275.528 53.5242 274.916C53.1162 274.304 52.9002 273.536 52.8762 272.612H55.1442C55.1562 273.224 55.3542 273.74 55.7382 274.16C56.1342 274.568 56.6862 274.772 57.3942 274.772C58.0662 274.772 58.5822 274.586 58.9422 274.214C59.3022 273.842 59.4822 273.374 59.4822 272.81C59.4822 272.15 59.2422 271.652 58.7622 271.316C58.2942 270.968 57.6882 270.794 56.9442 270.794H56.0082V268.904H56.9622C57.5742 268.904 58.0842 268.76 58.4922 268.472C58.9002 268.184 59.1042 267.758 59.1042 267.194C59.1042 266.726 58.9482 266.354 58.6362 266.078C58.3362 265.79 57.9162 265.646 57.3762 265.646C56.7882 265.646 56.3262 265.82 55.9902 266.168C55.6662 266.516 55.4862 266.942 55.4502 267.446H53.2002C53.2482 266.282 53.6502 265.364 54.4062 264.692C55.1742 264.02 56.1642 263.684 57.3762 263.684C58.2402 263.684 58.9662 263.84 59.5542 264.152C60.1542 264.452 60.6042 264.854 60.9042 265.358C61.2162 265.862 61.3722 266.42 61.3722 267.032C61.3722 267.74 61.1742 268.34 60.7782 268.832C60.3942 269.312 59.9142 269.636 59.3382 269.804C60.0462 269.948 60.6222 270.296 61.0662 270.848C61.5102 271.388 61.7322 272.072 61.7322 272.9C61.7322 273.596 61.5642 274.232 61.2282 274.808C60.8922 275.384 60.4002 275.846 59.7522 276.194C59.1162 276.542 58.3302 276.716 57.3942 276.716ZM66.0687 270.092C65.4927 270.092 64.9707 269.966 64.5027 269.714C64.0347 269.45 63.6627 269.078 63.3867 268.598C63.1107 268.118 62.9727 267.548 62.9727 266.888C62.9727 266.228 63.1107 265.658 63.3867 265.178C63.6627 264.698 64.0347 264.332 64.5027 264.08C64.9707 263.816 65.4987 263.684 66.0867 263.684C66.6627 263.684 67.1787 263.816 67.6347 264.08C68.1027 264.332 68.4747 264.698 68.7507 265.178C69.0267 265.658 69.1647 266.228 69.1647 266.888C69.1647 267.548 69.0267 268.118 68.7507 268.598C68.4747 269.078 68.1027 269.45 67.6347 269.714C67.1667 269.966 66.6447 270.092 66.0687 270.092ZM65.3847 276.5L72.4947 263.9H74.7447L67.6347 276.5H65.3847ZM66.0687 268.49C66.4167 268.49 66.7167 268.358 66.9687 268.094C67.2207 267.818 67.3467 267.416 67.3467 266.888C67.3467 266.36 67.2207 265.958 66.9687 265.682C66.7287 265.406 66.4287 265.268 66.0687 265.268C65.7087 265.268 65.4027 265.406 65.1507 265.682C64.9107 265.958 64.7907 266.36 64.7907 266.888C64.7907 267.416 64.9107 267.818 65.1507 268.094C65.4027 268.358 65.7087 268.49 66.0687 268.49ZM74.1327 276.716C73.5567 276.716 73.0347 276.59 72.5667 276.338C72.0987 276.074 71.7267 275.702 71.4507 275.222C71.1747 274.742 71.0367 274.172 71.0367 273.512C71.0367 272.852 71.1747 272.288 71.4507 271.82C71.7267 271.34 72.0987 270.974 72.5667 270.722C73.0347 270.458 73.5627 270.326 74.1507 270.326C74.7267 270.326 75.2427 270.458 75.6987 270.722C76.1667 270.974 76.5387 271.34 76.8147 271.82C77.0907 272.288 77.2287 272.852 77.2287 273.512C77.2287 274.172 77.0907 274.742 76.8147 275.222C76.5387 275.702 76.1667 276.074 75.6987 276.338C75.2427 276.59 74.7207 276.716 74.1327 276.716ZM74.1327 275.114C74.4927 275.114 74.7927 274.982 75.0327 274.718C75.2847 274.442 75.4107 274.04 75.4107 273.512C75.4107 272.984 75.2847 272.582 75.0327 272.306C74.7927 272.03 74.4927 271.892 74.1327 271.892C73.7727 271.892 73.4667 272.03 73.2147 272.306C72.9747 272.582 72.8547 272.984 72.8547 273.512C72.8547 274.04 72.9747 274.442 73.2147 274.718C73.4667 274.982 73.7727 275.114 74.1327 275.114Z" fill="#2B3674"/>
<circle cx="32" cy="252.5" r="4" fill="#4318FF"/>
<path d="M631.852 261.5V253.1H634.792C635.448 253.1 635.992 253.212 636.424 253.436C636.856 253.652 637.176 253.952 637.384 254.336C637.6 254.712 637.708 255.14 637.708 255.62C637.708 256.076 637.604 256.496 637.396 256.88C637.196 257.256 636.88 257.556 636.448 257.78C636.016 258.004 635.464 258.116 634.792 258.116H633.124V261.5H631.852ZM633.124 257.072H634.732C635.332 257.072 635.76 256.944 636.016 256.688C636.28 256.424 636.412 256.068 636.412 255.62C636.412 255.156 636.28 254.796 636.016 254.54C635.76 254.276 635.332 254.144 634.732 254.144H633.124V257.072ZM641.133 261.644C640.549 261.644 640.029 261.516 639.573 261.26C639.125 260.996 638.773 260.632 638.517 260.168C638.261 259.704 638.133 259.164 638.133 258.548C638.133 257.924 638.257 257.376 638.505 256.904C638.761 256.432 639.113 256.064 639.561 255.8C640.017 255.536 640.545 255.404 641.145 255.404C641.729 255.404 642.237 255.536 642.669 255.8C643.101 256.056 643.437 256.4 643.677 256.832C643.917 257.264 644.037 257.74 644.037 258.26C644.037 258.34 644.033 258.428 644.025 258.524C644.025 258.612 644.021 258.712 644.013 258.824H639.381C639.421 259.4 639.609 259.84 639.945 260.144C640.289 260.44 640.685 260.588 641.133 260.588C641.493 260.588 641.793 260.508 642.033 260.348C642.281 260.18 642.465 259.956 642.585 259.676H643.857C643.697 260.236 643.377 260.704 642.897 261.08C642.425 261.456 641.837 261.644 641.133 261.644ZM641.133 256.448C640.709 256.448 640.333 256.576 640.005 256.832C639.677 257.08 639.477 257.456 639.405 257.96H642.765C642.741 257.496 642.577 257.128 642.273 256.856C641.969 256.584 641.589 256.448 641.133 256.448ZM645.117 261.5V255.548H646.245L646.341 256.592C646.525 256.224 646.793 255.936 647.145 255.728C647.505 255.512 647.917 255.404 648.381 255.404C649.101 255.404 649.665 255.628 650.073 256.076C650.489 256.524 650.697 257.192 650.697 258.08V261.5H649.437V258.212C649.437 257.06 648.965 256.484 648.021 256.484C647.549 256.484 647.157 256.652 646.845 256.988C646.541 257.324 646.389 257.804 646.389 258.428V261.5H645.117ZM654.667 261.644C654.091 261.644 653.583 261.508 653.143 261.236C652.703 260.964 652.359 260.592 652.111 260.12C651.863 259.648 651.739 259.112 651.739 258.512C651.739 257.912 651.863 257.38 652.111 256.916C652.359 256.444 652.703 256.076 653.143 255.812C653.591 255.54 654.103 255.404 654.679 255.404C655.151 255.404 655.563 255.496 655.915 255.68C656.275 255.864 656.555 256.124 656.755 256.46V252.86H658.027V261.5H656.887L656.755 260.576C656.563 260.856 656.299 261.104 655.963 261.32C655.627 261.536 655.195 261.644 654.667 261.644ZM654.895 260.54C655.439 260.54 655.883 260.352 656.227 259.976C656.579 259.6 656.755 259.116 656.755 258.524C656.755 257.924 656.579 257.44 656.227 257.072C655.883 256.696 655.439 256.508 654.895 256.508C654.351 256.508 653.903 256.696 653.551 257.072C653.199 257.44 653.023 257.924 653.023 258.524C653.023 258.916 653.103 259.264 653.263 259.568C653.423 259.872 653.643 260.112 653.923 260.288C654.211 260.456 654.535 260.54 654.895 260.54ZM662.175 261.644C661.591 261.644 661.071 261.516 660.615 261.26C660.167 260.996 659.815 260.632 659.559 260.168C659.303 259.704 659.175 259.164 659.175 258.548C659.175 257.924 659.299 257.376 659.547 256.904C659.803 256.432 660.155 256.064 660.603 255.8C661.059 255.536 661.587 255.404 662.187 255.404C662.771 255.404 663.279 255.536 663.711 255.8C664.143 256.056 664.479 256.4 664.719 256.832C664.959 257.264 665.079 257.74 665.079 258.26C665.079 258.34 665.075 258.428 665.067 258.524C665.067 258.612 665.063 258.712 665.055 258.824H660.423C660.463 259.4 660.651 259.84 660.987 260.144C661.331 260.44 661.727 260.588 662.175 260.588C662.535 260.588 662.835 260.508 663.075 260.348C663.323 260.18 663.507 259.956 663.627 259.676H664.899C664.739 260.236 664.419 260.704 663.939 261.08C663.467 261.456 662.879 261.644 662.175 261.644ZM662.175 256.448C661.751 256.448 661.375 256.576 661.047 256.832C660.719 257.08 660.519 257.456 660.447 257.96H663.807C663.783 257.496 663.619 257.128 663.315 256.856C663.011 256.584 662.631 256.448 662.175 256.448ZM666.159 261.5V255.548H667.287L667.383 256.592C667.567 256.224 667.835 255.936 668.187 255.728C668.547 255.512 668.959 255.404 669.423 255.404C670.143 255.404 670.707 255.628 671.115 256.076C671.531 256.524 671.739 257.192 671.739 258.08V261.5H670.479V258.212C670.479 257.06 670.007 256.484 669.063 256.484C668.591 256.484 668.199 256.652 667.887 256.988C667.583 257.324 667.431 257.804 667.431 258.428V261.5H666.159ZM675.493 261.5C674.909 261.5 674.445 261.36 674.101 261.08C673.757 260.792 673.585 260.284 673.585 259.556V256.616H672.565V255.548H673.585L673.741 254.036H674.857V255.548H676.537V256.616H674.857V259.556C674.857 259.884 674.925 260.112 675.061 260.24C675.205 260.36 675.449 260.42 675.793 260.42H676.477V261.5H675.493ZM680.24 261.644C679.656 261.644 679.136 261.516 678.68 261.26C678.232 260.996 677.88 260.632 677.624 260.168C677.368 259.704 677.24 259.164 677.24 258.548C677.24 257.924 677.364 257.376 677.612 256.904C677.868 256.432 678.22 256.064 678.668 255.8C679.124 255.536 679.652 255.404 680.252 255.404C680.836 255.404 681.344 255.536 681.776 255.8C682.208 256.056 682.544 256.4 682.784 256.832C683.024 257.264 683.144 257.74 683.144 258.26C683.144 258.34 683.14 258.428 683.132 258.524C683.132 258.612 683.128 258.712 683.12 258.824H678.488C678.528 259.4 678.716 259.84 679.052 260.144C679.396 260.44 679.792 260.588 680.24 260.588C680.6 260.588 680.9 260.508 681.14 260.348C681.388 260.18 681.572 259.956 681.692 259.676H682.964C682.804 260.236 682.484 260.704 682.004 261.08C681.532 261.456 680.944 261.644 680.24 261.644ZM680.24 256.448C679.816 256.448 679.44 256.576 679.112 256.832C678.784 257.08 678.584 257.456 678.512 257.96H681.872C681.848 257.496 681.684 257.128 681.38 256.856C681.076 256.584 680.696 256.448 680.24 256.448ZM686.6 261.644C685.848 261.644 685.228 261.46 684.74 261.092C684.252 260.724 683.972 260.236 683.9 259.628H685.184C685.248 259.9 685.4 260.136 685.64 260.336C685.88 260.528 686.196 260.624 686.588 260.624C686.972 260.624 687.252 260.544 687.428 260.384C687.604 260.224 687.692 260.04 687.692 259.832C687.692 259.528 687.568 259.324 687.32 259.22C687.08 259.108 686.744 259.008 686.312 258.92C685.976 258.848 685.64 258.752 685.304 258.632C684.976 258.512 684.7 258.344 684.476 258.128C684.26 257.904 684.152 257.604 684.152 257.228C684.152 256.708 684.352 256.276 684.752 255.932C685.152 255.58 685.712 255.404 686.432 255.404C687.096 255.404 687.632 255.564 688.04 255.884C688.456 256.204 688.7 256.656 688.772 257.24H687.548C687.508 256.984 687.388 256.784 687.188 256.64C686.996 256.496 686.736 256.424 686.408 256.424C686.088 256.424 685.84 256.492 685.664 256.628C685.488 256.756 685.4 256.924 685.4 257.132C685.4 257.34 685.52 257.504 685.76 257.624C686.008 257.744 686.332 257.852 686.732 257.948C687.132 258.036 687.5 258.14 687.836 258.26C688.18 258.372 688.456 258.54 688.664 258.764C688.872 258.988 688.976 259.316 688.976 259.748C688.984 260.292 688.772 260.744 688.34 261.104C687.916 261.464 687.336 261.644 686.6 261.644Z" fill="#A3AED0"/>
<path d="M631.918 281.5V279.826C632.686 279.19 633.43 278.56 634.15 277.936C634.882 277.312 635.53 276.694 636.094 276.082C636.67 275.47 637.126 274.876 637.462 274.3C637.81 273.712 637.984 273.142 637.984 272.59C637.984 272.074 637.84 271.618 637.552 271.222C637.276 270.826 636.814 270.628 636.166 270.628C635.506 270.628 635.008 270.844 634.672 271.276C634.336 271.708 634.168 272.23 634.168 272.842H631.936C631.96 271.918 632.164 271.15 632.548 270.538C632.932 269.914 633.442 269.452 634.078 269.152C634.714 268.84 635.428 268.684 636.22 268.684C637.504 268.684 638.5 269.038 639.208 269.746C639.928 270.442 640.288 271.348 640.288 272.464C640.288 273.16 640.126 273.838 639.802 274.498C639.49 275.158 639.076 275.794 638.56 276.406C638.044 277.018 637.486 277.594 636.886 278.134C636.286 278.662 635.704 279.154 635.14 279.61H640.594V281.5H631.918ZM646.665 281.716C645.741 281.716 644.943 281.554 644.271 281.23C643.611 280.906 643.089 280.462 642.705 279.898C642.333 279.322 642.117 278.674 642.057 277.954H644.307C644.415 278.47 644.679 278.902 645.099 279.25C645.519 279.586 646.041 279.754 646.665 279.754C647.337 279.754 647.883 279.508 648.303 279.016C648.735 278.524 648.951 277.912 648.951 277.18C648.951 276.424 648.735 275.824 648.303 275.38C647.883 274.936 647.349 274.714 646.701 274.714C646.161 274.714 645.693 274.846 645.297 275.11C644.901 275.374 644.619 275.704 644.451 276.1H642.237L643.317 268.9H650.301V270.916H645.045L644.469 273.832C644.733 273.544 645.093 273.31 645.549 273.13C646.005 272.938 646.515 272.842 647.079 272.842C647.979 272.842 648.729 273.046 649.329 273.454C649.929 273.85 650.385 274.378 650.697 275.038C651.009 275.686 651.165 276.394 651.165 277.162C651.165 278.038 650.973 278.818 650.589 279.502C650.217 280.186 649.689 280.726 649.005 281.122C648.333 281.518 647.553 281.716 646.665 281.716ZM655.541 275.092C654.965 275.092 654.443 274.966 653.975 274.714C653.507 274.45 653.135 274.078 652.859 273.598C652.583 273.118 652.445 272.548 652.445 271.888C652.445 271.228 652.583 270.658 652.859 270.178C653.135 269.698 653.507 269.332 653.975 269.08C654.443 268.816 654.971 268.684 655.559 268.684C656.135 268.684 656.651 268.816 657.107 269.08C657.575 269.332 657.947 269.698 658.223 270.178C658.499 270.658 658.637 271.228 658.637 271.888C658.637 272.548 658.499 273.118 658.223 273.598C657.947 274.078 657.575 274.45 657.107 274.714C656.639 274.966 656.117 275.092 655.541 275.092ZM654.857 281.5L661.967 268.9H664.217L657.107 281.5H654.857ZM655.541 273.49C655.889 273.49 656.189 273.358 656.441 273.094C656.693 272.818 656.819 272.416 656.819 271.888C656.819 271.36 656.693 270.958 656.441 270.682C656.201 270.406 655.901 270.268 655.541 270.268C655.181 270.268 654.875 270.406 654.623 270.682C654.383 270.958 654.263 271.36 654.263 271.888C654.263 272.416 654.383 272.818 654.623 273.094C654.875 273.358 655.181 273.49 655.541 273.49ZM663.605 281.716C663.029 281.716 662.507 281.59 662.039 281.338C661.571 281.074 661.199 280.702 660.923 280.222C660.647 279.742 660.509 279.172 660.509 278.512C660.509 277.852 660.647 277.288 660.923 276.82C661.199 276.34 661.571 275.974 662.039 275.722C662.507 275.458 663.035 275.326 663.623 275.326C664.199 275.326 664.715 275.458 665.171 275.722C665.639 275.974 666.011 276.34 666.287 276.82C666.563 277.288 666.701 277.852 666.701 278.512C666.701 279.172 666.563 279.742 666.287 280.222C666.011 280.702 665.639 281.074 665.171 281.338C664.715 281.59 664.193 281.716 663.605 281.716ZM663.605 280.114C663.965 280.114 664.265 279.982 664.505 279.718C664.757 279.442 664.883 279.04 664.883 278.512C664.883 277.984 664.757 277.582 664.505 277.306C664.265 277.03 663.965 276.892 663.605 276.892C663.245 276.892 662.939 277.03 662.687 277.306C662.447 277.582 662.327 277.984 662.327 278.512C662.327 279.04 662.447 279.442 662.687 279.718C662.939 279.982 663.245 280.114 663.605 280.114Z" fill="#2B3674"/>
<circle cx="622" cy="257.5" r="4" fill="#6AD2FF"/>
<ellipse cx="353.5" cy="170.5" rx="89" ry="97.5" transform="rotate(-90 353.5 170.5)" fill="#EFF4FB"/>
<path d="M353.5 81.5C373.311 81.5 392.652 87.009 408.948 97.2933C425.243 107.578 437.72 122.149 444.717 139.068C451.714 155.987 452.898 174.449 448.113 191.998C443.328 209.546 432.799 225.348 417.93 237.298C403.061 249.249 384.557 256.781 364.881 258.892C345.205 261.003 325.292 257.592 307.793 249.114C290.293 240.637 276.038 227.494 266.926 211.437C257.814 195.379 254.276 177.169 256.785 159.23L353.5 170.5L353.5 81.5Z" fill="#6AD2FF"/>
<path d="M353.5 81.5C368.521 81.5 383.338 84.668 396.797 90.7567C410.255 96.8454 421.99 105.69 431.087 116.601C440.184 127.512 446.396 140.194 449.238 153.657C452.081 167.121 451.477 181.001 447.474 194.217C443.472 207.432 436.178 219.625 426.163 229.843C416.147 240.061 403.681 248.029 389.736 253.125C375.791 258.221 360.745 260.307 345.772 259.22C330.799 258.133 316.303 253.903 303.415 246.86L353.5 170.5L353.5 81.5Z" fill="#4318FF"/>
<path d="M1.632 24.5V7.7H7.848C9.192 7.7 10.304 7.924 11.184 8.372C12.064 8.82 12.72 9.436 13.152 10.22C13.584 11.004 13.8 11.884 13.8 12.86C13.8 13.788 13.592 14.644 13.176 15.428C12.76 16.196 12.112 16.82 11.232 17.3C10.352 17.764 9.224 17.996 7.848 17.996H4.704V24.5H1.632ZM4.704 15.5H7.656C8.728 15.5 9.496 15.268 9.96 14.804C10.44 14.324 10.68 13.676 10.68 12.86C10.68 12.028 10.44 11.38 9.96 10.916C9.496 10.436 8.728 10.196 7.656 10.196H4.704V15.5ZM15.6581 24.5V12.596H18.3941L18.6821 14.828C19.1141 14.06 19.6981 13.452 20.4341 13.004C21.1861 12.54 22.0661 12.308 23.0741 12.308V15.548H22.2101C21.5381 15.548 20.9381 15.652 20.4101 15.86C19.8821 16.068 19.4661 16.428 19.1621 16.94C18.8741 17.452 18.7301 18.164 18.7301 19.076V24.5H15.6581ZM30.1948 24.788C29.0428 24.788 28.0028 24.524 27.0748 23.996C26.1628 23.468 25.4348 22.74 24.8908 21.812C24.3628 20.868 24.0988 19.78 24.0988 18.548C24.0988 17.316 24.3708 16.236 24.9148 15.308C25.4588 14.364 26.1868 13.628 27.0988 13.1C28.0268 12.572 29.0668 12.308 30.2188 12.308C31.3548 12.308 32.3788 12.572 33.2908 13.1C34.2188 13.628 34.9468 14.364 35.4748 15.308C36.0188 16.236 36.2908 17.316 36.2908 18.548C36.2908 19.78 36.0188 20.868 35.4748 21.812C34.9468 22.74 34.2188 23.468 33.2908 23.996C32.3628 24.524 31.3308 24.788 30.1948 24.788ZM30.1948 22.124C30.9948 22.124 31.6908 21.828 32.2828 21.236C32.8748 20.628 33.1708 19.732 33.1708 18.548C33.1708 17.364 32.8748 16.476 32.2828 15.884C31.6908 15.276 31.0028 14.972 30.2188 14.972C29.4028 14.972 28.6988 15.276 28.1068 15.884C27.5308 16.476 27.2428 17.364 27.2428 18.548C27.2428 19.732 27.5308 20.628 28.1068 21.236C28.6988 21.828 29.3948 22.124 30.1948 22.124ZM42.8475 20.948C42.2715 20.948 41.7355 20.884 41.2395 20.756L40.3515 21.644C40.6235 21.788 40.9915 21.908 41.4555 22.004C41.9195 22.1 42.6715 22.196 43.7115 22.292C45.2955 22.436 46.4475 22.812 47.1675 23.42C47.8875 24.028 48.2475 24.868 48.2475 25.94C48.2475 26.644 48.0555 27.308 47.6715 27.932C47.2875 28.572 46.6955 29.084 45.8955 29.468C45.0955 29.868 44.0715 30.068 42.8235 30.068C41.1275 30.068 39.7595 29.748 38.7195 29.108C37.6795 28.484 37.1595 27.54 37.1595 26.276C37.1595 25.204 37.6795 24.276 38.7195 23.492C38.3995 23.348 38.1195 23.196 37.8795 23.036C37.6555 22.876 37.4555 22.708 37.2795 22.532V21.98L39.3675 19.772C38.4395 18.956 37.9755 17.908 37.9755 16.628C37.9755 15.828 38.1675 15.1 38.5515 14.444C38.9515 13.788 39.5115 13.268 40.2315 12.884C40.9515 12.5 41.8235 12.308 42.8475 12.308C43.5195 12.308 44.1435 12.404 44.7195 12.596H49.2315V14.468L47.1915 14.612C47.5115 15.22 47.6715 15.892 47.6715 16.628C47.6715 17.428 47.4795 18.156 47.0955 18.812C46.7115 19.468 46.1515 19.988 45.4155 20.372C44.6955 20.756 43.8395 20.948 42.8475 20.948ZM42.8475 18.596C43.4715 18.596 43.9835 18.428 44.3835 18.092C44.7995 17.756 45.0075 17.276 45.0075 16.652C45.0075 16.028 44.7995 15.548 44.3835 15.212C43.9835 14.876 43.4715 14.708 42.8475 14.708C42.1915 14.708 41.6635 14.876 41.2635 15.212C40.8635 15.548 40.6635 16.028 40.6635 16.652C40.6635 17.276 40.8635 17.756 41.2635 18.092C41.6635 18.428 42.1915 18.596 42.8475 18.596ZM39.9675 25.964C39.9675 26.556 40.2395 26.996 40.7835 27.284C41.3435 27.588 42.0235 27.74 42.8235 27.74C43.5915 27.74 44.2155 27.58 44.6955 27.26C45.1755 26.956 45.4155 26.54 45.4155 26.012C45.4155 25.58 45.2555 25.22 44.9355 24.932C44.6315 24.644 44.0155 24.468 43.0875 24.404C42.4315 24.356 41.8235 24.284 41.2635 24.188C40.7995 24.444 40.4635 24.724 40.2555 25.028C40.0635 25.332 39.9675 25.644 39.9675 25.964ZM50.9916 24.5V12.596H53.7276L54.0156 14.828C54.4476 14.06 55.0316 13.452 55.7676 13.004C56.5196 12.54 57.3996 12.308 58.4076 12.308V15.548H57.5436C56.8716 15.548 56.2716 15.652 55.7436 15.86C55.2156 16.068 54.7996 16.428 54.4956 16.94C54.2076 17.452 54.0636 18.164 54.0636 19.076V24.5H50.9916ZM65.6002 24.788C64.4002 24.788 63.3362 24.532 62.4082 24.02C61.4802 23.508 60.7522 22.788 60.2242 21.86C59.6962 20.932 59.4322 19.86 59.4322 18.644C59.4322 17.412 59.6882 16.316 60.2002 15.356C60.7282 14.396 61.4482 13.652 62.3602 13.124C63.2882 12.58 64.3762 12.308 65.6242 12.308C66.7922 12.308 67.8242 12.564 68.7202 13.076C69.6162 13.588 70.3122 14.292 70.8082 15.188C71.3202 16.068 71.5762 17.052 71.5762 18.14C71.5762 18.316 71.5682 18.5 71.5522 18.692C71.5522 18.884 71.5442 19.084 71.5282 19.292H62.4802C62.5442 20.22 62.8642 20.948 63.4402 21.476C64.0322 22.004 64.7442 22.268 65.5762 22.268C66.2002 22.268 66.7202 22.132 67.1362 21.86C67.5682 21.572 67.8882 21.204 68.0962 20.756H71.2162C70.9922 21.508 70.6162 22.196 70.0882 22.82C69.5762 23.428 68.9362 23.908 68.1682 24.26C67.4162 24.612 66.5602 24.788 65.6002 24.788ZM65.6242 14.804C64.8722 14.804 64.2082 15.02 63.6322 15.452C63.0562 15.868 62.6882 16.508 62.5282 17.372H68.4562C68.4082 16.588 68.1202 15.964 67.5922 15.5C67.0642 15.036 66.4082 14.804 65.6242 14.804ZM78.6 24.788C77.544 24.788 76.616 24.62 75.816 24.284C75.016 23.932 74.376 23.452 73.896 22.844C73.416 22.236 73.128 21.532 73.032 20.732H76.128C76.224 21.196 76.48 21.596 76.896 21.932C77.328 22.252 77.88 22.412 78.552 22.412C79.224 22.412 79.712 22.276 80.016 22.004C80.336 21.732 80.496 21.42 80.496 21.068C80.496 20.556 80.272 20.212 79.824 20.036C79.376 19.844 78.752 19.66 77.952 19.484C77.44 19.372 76.92 19.236 76.392 19.076C75.864 18.916 75.376 18.716 74.928 18.476C74.496 18.22 74.144 17.9 73.872 17.516C73.6 17.116 73.464 16.628 73.464 16.052C73.464 14.996 73.88 14.108 74.712 13.388C75.56 12.668 76.744 12.308 78.264 12.308C79.672 12.308 80.792 12.636 81.624 13.292C82.472 13.948 82.976 14.852 83.136 16.004H80.232C80.056 15.124 79.392 14.684 78.24 14.684C77.664 14.684 77.216 14.796 76.896 15.02C76.592 15.244 76.44 15.524 76.44 15.86C76.44 16.212 76.672 16.492 77.136 16.7C77.6 16.908 78.216 17.1 78.984 17.276C79.816 17.468 80.576 17.684 81.264 17.924C81.968 18.148 82.528 18.492 82.944 18.956C83.36 19.404 83.568 20.052 83.568 20.9C83.584 21.636 83.392 22.3 82.992 22.892C82.592 23.484 82.016 23.948 81.264 24.284C80.512 24.62 79.624 24.788 78.6 24.788ZM90.7294 24.788C89.6734 24.788 88.7454 24.62 87.9454 24.284C87.1454 23.932 86.5054 23.452 86.0254 22.844C85.5454 22.236 85.2574 21.532 85.1614 20.732H88.2574C88.3534 21.196 88.6094 21.596 89.0254 21.932C89.4574 22.252 90.0094 22.412 90.6814 22.412C91.3534 22.412 91.8414 22.276 92.1454 22.004C92.4654 21.732 92.6254 21.42 92.6254 21.068C92.6254 20.556 92.4014 20.212 91.9534 20.036C91.5054 19.844 90.8814 19.66 90.0814 19.484C89.5694 19.372 89.0494 19.236 88.5214 19.076C87.9934 18.916 87.5054 18.716 87.0574 18.476C86.6254 18.22 86.2734 17.9 86.0014 17.516C85.7294 17.116 85.5934 16.628 85.5934 16.052C85.5934 14.996 86.0094 14.108 86.8414 13.388C87.6894 12.668 88.8734 12.308 90.3934 12.308C91.8014 12.308 92.9214 12.636 93.7534 13.292C94.6014 13.948 95.1054 14.852 95.2654 16.004H92.3614C92.1854 15.124 91.5214 14.684 90.3694 14.684C89.7934 14.684 89.3454 14.796 89.0254 15.02C88.7214 15.244 88.5694 15.524 88.5694 15.86C88.5694 16.212 88.8014 16.492 89.2654 16.7C89.7294 16.908 90.3454 17.1 91.1134 17.276C91.9454 17.468 92.7054 17.684 93.3934 17.924C94.0974 18.148 94.6574 18.492 95.0734 18.956C95.4894 19.404 95.6974 20.052 95.6974 20.9C95.7134 21.636 95.5214 22.3 95.1214 22.892C94.7214 23.484 94.1454 23.948 93.3934 24.284C92.6414 24.62 91.7534 24.788 90.7294 24.788ZM103.651 24.788C102.499 24.788 101.459 24.524 100.531 23.996C99.6188 23.468 98.8908 22.74 98.3468 21.812C97.8188 20.868 97.5548 19.78 97.5548 18.548C97.5548 17.316 97.8268 16.236 98.3708 15.308C98.9148 14.364 99.6428 13.628 100.555 13.1C101.483 12.572 102.523 12.308 103.675 12.308C104.811 12.308 105.835 12.572 106.747 13.1C107.675 13.628 108.403 14.364 108.931 15.308C109.475 16.236 109.747 17.316 109.747 18.548C109.747 19.78 109.475 20.868 108.931 21.812C108.403 22.74 107.675 23.468 106.747 23.996C105.819 24.524 104.787 24.788 103.651 24.788ZM103.651 22.124C104.451 22.124 105.147 21.828 105.739 21.236C106.331 20.628 106.627 19.732 106.627 18.548C106.627 17.364 106.331 16.476 105.739 15.884C105.147 15.276 104.459 14.972 103.675 14.972C102.859 14.972 102.155 15.276 101.563 15.884C100.987 16.476 100.699 17.364 100.699 18.548C100.699 19.732 100.987 20.628 101.563 21.236C102.155 21.828 102.851 22.124 103.651 22.124Z" fill="#1B2559"/>
<rect x="629" width="81" height="27" rx="5" fill="#F4F7FE"/>
<path d="M647.816 17V8.6H649.64L652.316 13.928L654.956 8.6H656.78V17H655.244V11.204L652.904 15.8H651.692L649.352 11.204V17H647.816ZM661.026 17.144C660.426 17.144 659.894 17.016 659.43 16.76C658.966 16.504 658.602 16.144 658.338 15.68C658.074 15.216 657.942 14.68 657.942 14.072C657.942 13.456 658.07 12.908 658.326 12.428C658.59 11.948 658.95 11.576 659.406 11.312C659.87 11.04 660.414 10.904 661.038 10.904C661.622 10.904 662.138 11.032 662.586 11.288C663.034 11.544 663.382 11.896 663.63 12.344C663.886 12.784 664.014 13.276 664.014 13.82C664.014 13.908 664.01 14 664.002 14.096C664.002 14.192 663.998 14.292 663.99 14.396H659.466C659.498 14.86 659.658 15.224 659.946 15.488C660.242 15.752 660.598 15.884 661.014 15.884C661.326 15.884 661.586 15.816 661.794 15.68C662.01 15.536 662.17 15.352 662.274 15.128H663.834C663.722 15.504 663.534 15.848 663.27 16.16C663.014 16.464 662.694 16.704 662.31 16.88C661.934 17.056 661.506 17.144 661.026 17.144ZM661.038 12.152C660.662 12.152 660.33 12.26 660.042 12.476C659.754 12.684 659.57 13.004 659.49 13.436H662.454C662.43 13.044 662.286 12.732 662.022 12.5C661.758 12.268 661.43 12.152 661.038 12.152ZM659.262 10.484V9.38L661.014 8.42L662.766 9.38V10.484L661.014 9.5L659.262 10.484ZM667.526 17.144C666.998 17.144 666.534 17.06 666.134 16.892C665.734 16.716 665.414 16.476 665.174 16.172C664.934 15.868 664.79 15.516 664.742 15.116H666.29C666.338 15.348 666.466 15.548 666.674 15.716C666.89 15.876 667.166 15.956 667.502 15.956C667.838 15.956 668.082 15.888 668.234 15.752C668.394 15.616 668.474 15.46 668.474 15.284C668.474 15.028 668.362 14.856 668.138 14.768C667.914 14.672 667.602 14.58 667.202 14.492C666.946 14.436 666.686 14.368 666.422 14.288C666.158 14.208 665.914 14.108 665.69 13.988C665.474 13.86 665.298 13.7 665.162 13.508C665.026 13.308 664.958 13.064 664.958 12.776C664.958 12.248 665.166 11.804 665.582 11.444C666.006 11.084 666.598 10.904 667.358 10.904C668.062 10.904 668.622 11.068 669.038 11.396C669.462 11.724 669.714 12.176 669.794 12.752H668.342C668.254 12.312 667.922 12.092 667.346 12.092C667.058 12.092 666.834 12.148 666.674 12.26C666.522 12.372 666.446 12.512 666.446 12.68C666.446 12.856 666.562 12.996 666.794 13.1C667.026 13.204 667.334 13.3 667.718 13.388C668.134 13.484 668.514 13.592 668.858 13.712C669.21 13.824 669.49 13.996 669.698 14.228C669.906 14.452 670.01 14.776 670.01 15.2C670.018 15.568 669.922 15.9 669.722 16.196C669.522 16.492 669.234 16.724 668.858 16.892C668.482 17.06 668.038 17.144 667.526 17.144Z" fill="#A3AED0"/>
<g clip-path="url(#clip0_1544_707)">
<path d="M698.457 11.4167L694.499 15.375L690.54 11.4167L698.457 11.4167Z" fill="#A3AED0"/>
</g>
<defs>
<clipPath id="clip0_1544_707">
<rect width="19" height="19" fill="white" transform="translate(704 22.5) rotate(-180)"/>
</clipPath>
</defs>
</svg>
